<?xml version="1.0" standalone="no"?>
<!DOCTYPE svg PUBLIC "-//W3C//DTD SVG 20010904//EN"
 "http://www.w3.org/TR/2001/REC-SVG-20010904/DTD/svg10.dtd">
<svg version="1.0" xmlns="http://www.w3.org/2000/svg"
 width="2500.000000pt" height="2500.000000pt" viewBox="0 0 2500.000000 2500.000000"
 preserveAspectRatio="xMidYMid meet">
<metadata>
Created by potrace 1.16, written by Peter Selinger 2001-2019
</metadata>
<g transform="translate(0.000000,2500.000000) scale(0.100000,-0.100000)"
fill="#000000" stroke="none">
<path d="M17195 23994 c-172 -68 -273 -110 -435 -181 -518 -229 -965 -372
-1260 -403 -150 -16 -229 -31 -615 -116 -271 -60 -271 -60 -345 -78 -36 -8
-99 -23 -140 -32 -135 -30 -582 -142 -730 -184 -80 -23 -167 -47 -195 -55 -27
-8 -108 -34 -180 -59 -385 -132 -581 -225 -963 -457 -112 -69 -291 -210 -360
-285 -60 -65 -152 -218 -152 -254 0 -6 -8 -34 -18 -63 -21 -58 -19 -162 3
-183 7 -7 15 -36 18 -65 4 -29 11 -57 16 -62 11 -11 252 9 261 22 11 15 307
80 390 85 55 3 70 -1 63 -20 -6 -17 9 -18 60 -3 33 9 52 29 27 29 -21 0 -25 2
-33 16 -4 8 -18 14 -29 14 -12 0 -19 2 -16 5 11 11 98 -8 98 -21 0 -8 7 -14
15 -14 22 0 18 -31 -5 -37 -11 -3 -20 -9 -20 -14 0 -13 56 -11 134 6 42 9 90
12 122 9 41 -5 68 -1 133 21 44 14 81 32 81 38 0 6 -7 18 -15 27 -9 10 -27 47
-40 83 -13 36 -47 114 -75 173 -29 60 -59 123 -66 139 -20 41 -92 115 -112
115 -9 1 -33 22 -53 48 -32 42 -39 62 -51 147 -2 16 4 21 26 23 16 2 43 14 60
27 49 37 83 42 111 15 13 -12 29 -36 36 -53 29 -74 166 -380 219 -492 31 -66
67 -144 80 -172 18 -43 27 -53 47 -53 43 0 591 131 893 214 288 79 293 80 245
91 -59 13 -62 16 -33 31 28 15 29 44 2 44 -8 0 -14 8 -14 17 0 16 -113 132
-131 134 -19 3 -25 5 -49 19 -14 8 -33 13 -42 11 -10 -1 -18 2 -18 8 0 11 -69
36 -77 27 -3 -3 -15 1 -27 9 -11 8 -29 15 -39 15 -10 0 -28 6 -40 14 -23 15
-87 29 -125 27 -13 0 -33 4 -45 11 -36 19 -33 19 -400 38 -288 15 -320 25
-303 94 7 30 187 146 346 223 242 118 452 196 790 293 207 59 327 90 950 245
603 150 752 193 1021 291 151 54 179 66 574 233 127 54 291 121 365 150 74 29
145 57 158 62 13 5 31 9 41 9 9 0 25 6 35 13 20 15 12 47 -13 46 -9 0 -79 -25
-156 -55z m-4536 -1694 c23 -41 50 -145 51 -196 0 -23 -37 -71 -51 -66 -5 1
-9 -3 -9 -9 0 -6 -7 -17 -15 -25 -8 -8 -12 -21 -9 -29 8 -19 -15 -41 -49 -47
-19 -4 -27 -1 -27 8 0 8 -3 13 -7 13 -23 -4 -33 3 -33 21 0 21 -33 29 -45 10
-3 -5 -15 -10 -26 -10 -17 0 -24 16 -20 43 0 4 -4 7 -10 7 -5 0 -7 5 -4 10 3
6 -1 10 -9 10 -22 0 -16 92 7 118 9 10 17 22 17 25 0 17 122 138 155 153 44
20 57 14 84 -36z"/>
<path d="M11782 22469 c-13 -5 -34 -6 -48 -3 -16 4 -37 -3 -69 -22 -25 -16
-45 -33 -45 -37 0 -5 12 -22 27 -38 l27 -28 56 30 c69 39 90 57 90 80 0 24
-10 28 -38 18z"/>
<path d="M11460 22294 c-55 -52 -59 -63 -30 -89 28 -26 25 -41 -11 -54 -42
-14 -44 -14 -65 7 -10 9 -28 18 -42 19 -13 1 -30 8 -39 15 -8 6 -34 13 -57 13
-23 1 -54 10 -69 19 -16 11 -27 14 -27 7 0 -6 -8 -11 -17 -10 -11 0 -13 3 -5
6 6 2 12 11 12 19 0 17 -6 18 -23 4 -7 -5 -32 -24 -57 -43 -68 -50 -78 -75
-84 -206 -9 -189 38 -451 151 -856 14 -49 39 -118 55 -153 32 -69 47 -129 31
-119 -23 14 -99 189 -158 362 -64 187 -104 417 -112 643 -3 95 -9 175 -12 177
-12 7 -147 -166 -232 -295 -224 -341 -300 -513 -355 -796 -24 -127 -26 -153
-21 -299 4 -101 14 -195 26 -255 21 -97 109 -368 155 -475 44 -104 45 -103
-86 -102 -125 2 -171 -9 -209 -49 l-23 -25 115 3 c109 1 184 -11 217 -35 7 -6
12 -36 12 -82 0 -114 27 -186 119 -313 l78 -108 -34 -30 c-18 -16 -34 -38 -36
-49 -1 -12 -11 -34 -22 -50 -11 -17 -29 -47 -39 -67 -11 -21 -25 -38 -32 -38
-7 0 -18 -9 -24 -20 -6 -11 -17 -20 -25 -20 -8 0 -15 -6 -15 -13 0 -8 -12 -19
-26 -26 -23 -10 -25 -16 -20 -46 8 -41 -2 -44 -34 -10 -29 31 -50 32 -50 2 0
-36 27 -67 60 -67 19 0 36 -10 54 -31 34 -39 33 -49 -4 -49 -23 0 -30 -4 -30
-20 0 -11 32 -87 71 -168 39 -81 89 -187 110 -237 22 -49 49 -109 59 -133 24
-51 25 -72 6 -72 -13 0 -56 49 -56 63 0 7 -106 235 -122 262 -7 11 -29 48 -50
82 -20 34 -63 110 -94 170 -31 59 -67 122 -79 138 -31 43 -236 447 -288 568
-45 104 -71 178 -82 232 l-7 30 -13 -25 c-23 -41 -18 -156 10 -254 53 -184
207 -517 355 -771 96 -163 216 -409 229 -467 11 -50 10 -63 -8 -119 -34 -102
-25 -177 35 -279 47 -81 163 -192 245 -235 76 -40 235 -95 274 -95 14 0 35 -5
47 -11 18 -10 20 -17 13 -77 -30 -273 -34 -735 -7 -891 l11 -64 -60 -66 c-34
-36 -66 -77 -72 -91 -6 -14 -18 -34 -27 -45 -18 -20 -61 -136 -80 -213 -6 -24
-12 -143 -14 -265 l-2 -222 -47 -95 c-29 -60 -69 -120 -107 -163 -33 -37 -60
-72 -60 -76 0 -5 12 -17 27 -27 18 -11 23 -19 15 -22 -7 -2 -21 3 -31 12 -25
23 -43 13 -89 -47 -22 -29 -50 -63 -64 -77 -34 -34 -107 -125 -144 -180 -17
-25 -51 -74 -76 -110 -112 -161 -246 -443 -285 -600 -9 -36 -23 -74 -33 -85
-9 -11 -24 -32 -32 -46 l-16 -26 50 -11 c27 -7 61 -12 74 -12 29 0 97 -68 89
-89 -3 -8 0 -11 9 -8 7 3 38 -11 67 -31 30 -20 90 -54 133 -76 78 -40 105 -66
69 -66 -31 0 -127 40 -153 64 -14 13 -47 32 -74 41 -26 10 -69 38 -95 62 -43
40 -62 52 -163 98 -38 17 -58 14 -58 -10 0 -21 55 -62 95 -69 27 -5 41 -16 57
-42 11 -19 27 -34 35 -34 8 0 24 -11 35 -25 11 -15 30 -25 44 -25 14 0 44 -10
67 -22 34 -18 38 -23 22 -26 -12 -1 -48 5 -80 14 -33 9 -72 19 -87 21 -19 4
-28 11 -28 23 0 10 -8 21 -18 24 -10 4 -39 25 -63 49 -25 23 -61 51 -82 62
l-37 20 -21 -22 c-24 -24 -18 -43 14 -43 34 0 97 -47 97 -72 0 -16 -26 -7 -64
22 -67 51 -90 44 -175 -54 -40 -46 -82 -99 -93 -117 -11 -19 -30 -45 -43 -59
-39 -43 -104 -161 -137 -247 -17 -45 -48 -104 -69 -130 -21 -26 -48 -61 -61
-77 -13 -16 -34 -48 -48 -72 -14 -23 -58 -80 -97 -126 -78 -88 -135 -172 -126
-182 10 -10 61 -7 68 4 4 6 1 18 -6 27 -11 13 -10 18 10 34 12 10 38 21 56 25
19 3 39 12 46 20 6 8 16 14 22 14 16 0 87 51 87 63 0 5 -8 16 -17 23 -15 11
-16 16 -5 33 6 12 12 26 12 33 1 21 76 97 99 101 11 2 35 18 52 35 37 38 43
39 63 10 20 -28 14 -35 -37 -49 -23 -6 -56 -22 -74 -35 -36 -28 -83 -106 -78
-131 14 -69 14 -83 1 -83 -16 0 -66 -70 -66 -92 0 -31 22 -36 110 -27 53 5 88
5 94 -1 19 -19 34 -10 64 38 48 74 96 116 124 109 30 -8 128 47 200 112 46 41
50 43 78 31 16 -7 58 -39 92 -71 34 -33 66 -59 69 -59 15 0 69 -53 69 -67 0
-12 -7 -14 -31 -9 -41 8 -59 -7 -50 -41 7 -28 52 -61 84 -62 11 -1 32 6 47 16
27 16 30 15 81 -14 49 -28 54 -34 57 -69 3 -36 8 -42 65 -76 88 -52 93 -54
101 -24 8 31 15 32 63 6 66 -35 103 -22 68 24 -8 11 -15 28 -15 38 0 17 2 17
28 4 36 -19 109 -99 94 -104 -6 -2 -20 1 -31 7 -28 15 -33 14 -26 -8 3 -11 2
-21 -2 -24 -4 -2 -46 0 -93 4 -69 6 -87 5 -93 -7 -4 -8 -17 -14 -28 -14 -32 0
-21 -45 11 -47 14 0 43 -8 65 -17 22 -8 58 -15 81 -16 26 0 54 -9 75 -23 29
-20 34 -29 34 -62 0 -37 2 -39 40 -50 73 -19 145 -50 145 -60 0 -15 -73 -85
-88 -85 -17 0 -15 8 8 38 30 37 12 49 -44 28 -48 -19 -60 -29 -71 -64 -10 -33
63 -102 115 -109 33 -5 39 -2 60 28 38 55 93 109 111 109 20 0 61 -48 56 -64
-2 -6 -14 -13 -27 -16 l-24 -6 28 -21 c36 -29 65 -38 79 -24 6 6 19 11 29 11
27 0 89 -34 117 -64 35 -38 7 -43 -64 -12 -70 32 -95 33 -95 6 0 -25 34 -57
76 -70 25 -9 40 -8 69 4 32 14 40 14 65 1 16 -8 41 -15 56 -15 28 0 104 -45
104 -61 0 -13 -17 -11 -77 8 -53 17 -54 17 -75 -5 -20 -19 -21 -24 -8 -36 8
-7 46 -23 84 -35 62 -20 70 -21 85 -7 24 22 44 20 67 -5 19 -21 18 -21 -4 -40
-13 -10 -22 -24 -20 -30 2 -6 36 -20 76 -30 40 -10 93 -27 118 -39 51 -22 94
-26 110 -10 33 33 292 -90 278 -132 -4 -13 4 -21 31 -32 33 -14 54 -40 42 -53
-3 -3 -29 3 -57 13 -38 14 -53 15 -62 6 -9 -9 -7 -16 7 -32 15 -17 29 -20 85
-18 61 1 71 -2 127 -36 70 -43 132 -56 151 -33 11 13 5 17 -41 31 -29 9 -61
24 -71 34 -16 18 -15 20 6 35 23 15 23 15 3 31 -11 9 -57 27 -102 42 -85 26
-102 43 -63 64 44 23 7 57 -95 90 -42 13 -103 46 -170 90 -22 15 -58 33 -80
40 -50 16 -172 76 -179 89 -4 5 -55 33 -114 61 -59 28 -120 64 -137 79 -16 15
-60 45 -98 65 -76 42 -193 137 -202 165 -3 10 -29 33 -58 52 -57 37 -264 235
-255 245 11 11 71 -28 142 -93 39 -35 89 -81 110 -100 21 -19 63 -46 92 -60
30 -13 59 -33 64 -43 16 -29 201 -190 219 -190 31 0 123 -50 176 -95 54 -46
97 -65 148 -65 15 0 56 -16 90 -36 211 -122 312 -175 340 -181 18 -3 42 -12
55 -19 12 -8 58 -28 101 -44 94 -34 160 -67 238 -117 43 -28 343 -174 538
-263 121 -55 662 -326 770 -385 77 -42 203 -109 279 -147 156 -78 153 -78 225
-12 46 41 49 50 23 58 -10 4 -45 22 -78 42 -110 67 -418 222 -609 307 -104 46
-266 119 -360 162 -93 42 -190 85 -215 95 -25 10 -79 34 -120 53 -41 19 -135
60 -208 91 -73 32 -150 66 -170 78 -57 32 -170 88 -177 88 -7 0 -221 115 -457
246 -53 30 -100 54 -105 54 -10 0 -266 149 -378 219 -207 131 -215 137 -441
327 -60 50 -167 135 -239 189 -218 164 -493 413 -777 700 -52 53 -86 105 -68
105 19 0 124 -57 205 -112 44 -30 103 -69 130 -87 28 -19 62 -42 77 -52 19
-13 45 -19 85 -19 137 0 295 63 461 183 65 45 140 96 167 112 28 16 67 47 88
69 93 100 106 193 44 319 -38 77 -122 167 -155 167 -13 0 -13 -2 1 -18 25 -28
21 -42 -13 -42 -35 0 -38 -12 -9 -41 11 -11 18 -23 15 -27 -4 -3 -15 4 -26 16
-27 29 -86 45 -110 30 -15 -9 -26 -8 -52 4 -100 49 -198 73 -198 49 0 -15 24
-28 95 -49 74 -23 135 -55 135 -72 0 -14 -29 -12 -86 5 -27 9 -71 20 -98 25
-32 7 -61 21 -87 45 -22 19 -45 35 -52 35 -60 2 -162 23 -181 38 -27 20 -164
78 -171 71 -15 -16 15 -50 73 -85 92 -54 118 -62 189 -63 77 -1 111 -13 115
-42 2 -19 13 -24 68 -36 35 -7 85 -19 109 -28 25 -8 66 -15 92 -15 31 0 51 -5
60 -17 13 -15 10 -16 -33 -10 -36 5 -48 3 -48 -6 0 -20 21 -37 45 -37 12 0 42
-13 68 -30 46 -29 60 -50 34 -50 -30 0 -130 41 -159 65 -40 34 -102 65 -129
65 -47 0 -124 30 -134 53 -11 24 -65 42 -173 57 -42 5 -72 15 -86 29 -12 12
-27 21 -34 21 -33 0 -62 24 -62 52 0 15 -5 28 -10 28 -6 0 -22 11 -36 25 -14
14 -39 32 -56 41 l-31 16 24 19 c26 20 84 25 94 9 3 -5 19 -10 34 -10 16 0 69
-21 119 -46 61 -30 112 -48 155 -54 36 -5 76 -14 90 -19 19 -7 28 -6 37 4 16
19 -25 45 -71 45 -44 0 -138 41 -198 87 -28 21 -51 31 -62 28 -21 -7 -99 14
-99 26 0 10 76 32 110 31 43 0 84 -14 103 -33 10 -11 24 -19 31 -19 8 0 21
-11 30 -25 22 -33 31 -32 34 5 2 28 -2 33 -53 56 -97 45 -84 64 45 64 l85 0
75 83 c106 117 226 233 279 268 37 25 53 30 84 26 22 -3 49 -15 62 -27 13 -12
30 -20 37 -17 22 7 48 -12 48 -37 0 -27 -15 -42 -52 -51 -25 -6 -27 -5 -30 32
-4 45 -16 46 -83 6 -38 -23 -75 -74 -75 -103 0 -19 33 -40 61 -40 21 0 41 -10
61 -30 47 -48 47 -48 147 95 32 45 69 66 226 126 272 104 295 130 311 362 11
155 -16 201 -123 210 -35 3 -63 1 -63 -4 0 -21 -68 -7 -120 26 -30 19 -58 35
-62 35 -22 0 -388 181 -388 192 0 12 52 35 94 41 30 5 45 2 64 -13 15 -13 40
-20 66 -20 22 0 61 -9 85 -20 60 -28 74 -25 96 16 19 35 21 36 67 32 26 -3 51
-1 55 3 5 5 35 11 68 14 296 26 404 70 506 205 27 36 59 78 71 93 20 25 23 40
23 122 0 84 -3 97 -22 116 -34 35 -53 19 -53 -45 0 -30 -5 -58 -11 -62 -6 -3
-24 10 -41 30 -53 65 -61 40 -8 -28 31 -40 50 -74 50 -90 0 -26 -13 -35 -25
-16 -3 6 -19 10 -35 10 -70 0 -202 91 -212 145 -4 21 -38 34 -38 14 0 -6 12
-22 26 -35 48 -46 4 -59 -61 -19 -22 14 -49 25 -59 25 -26 0 -83 39 -95 66 -5
12 -34 33 -63 47 -29 14 -68 37 -87 51 -19 14 -41 26 -49 26 -8 0 -32 16 -54
35 -21 20 -50 41 -64 47 -30 14 -26 32 8 36 21 2 29 -3 39 -27 13 -30 36 -43
91 -55 15 -4 43 -20 63 -37 19 -17 56 -37 81 -45 54 -16 114 -18 114 -4 0 10
-68 42 -112 53 -15 4 -35 18 -44 32 -9 14 -21 25 -26 25 -6 0 -24 6 -41 14
-18 8 -45 18 -62 23 -36 12 -39 35 -5 43 17 4 42 -3 82 -24 55 -30 76 -31 65
-3 -8 22 -111 69 -162 75 l-45 5 6 -32 c6 -26 4 -31 -14 -31 -11 0 -25 7 -32
15 -7 8 -23 15 -37 15 -13 0 -26 7 -29 15 -4 8 -17 15 -30 15 -13 0 -28 9 -34
19 -5 11 -19 21 -30 23 -27 4 -27 22 0 26 11 2 20 -1 20 -6 0 -12 67 -56 90
-60 85 -15 89 3 8 45 -34 19 -63 39 -63 46 0 18 37 21 47 3 15 -27 67 -47 121
-47 29 0 66 -6 82 -14 17 -7 49 -19 73 -26 23 -7 47 -18 53 -26 15 -17 29 -17
29 0 0 18 -49 63 -81 73 -14 5 -52 33 -84 62 -44 38 -56 55 -48 63 19 19 95
29 137 18 l39 -11 96 95 c136 133 347 287 394 287 7 0 35 14 62 31 53 34 136
62 163 57 11 -2 -4 -14 -38 -30 -30 -15 -83 -49 -117 -77 -35 -28 -78 -57 -98
-65 -50 -21 -104 -64 -121 -97 -8 -16 -38 -44 -67 -62 -51 -33 -127 -108 -127
-126 0 -5 7 -14 16 -21 13 -11 23 -10 59 8 32 15 54 38 85 86 39 60 46 66 77
66 26 0 34 -4 30 -14 -3 -8 7 -31 23 -53 16 -21 30 -44 30 -50 0 -7 6 -13 13
-13 17 0 127 70 145 93 24 29 17 33 -116 54 -41 7 -46 16 -28 50 23 45 47 60
108 66 62 6 79 -3 54 -29 -21 -20 -20 -37 2 -63 15 -19 23 -21 61 -15 27 4 56
18 75 35 l31 28 -26 9 c-14 6 -33 22 -42 36 -12 17 -26 26 -44 26 l-27 0 30
31 c66 69 145 91 152 41 2 -13 -3 -25 -12 -28 -9 -3 -16 -12 -16 -18 0 -20 24
-65 38 -71 7 -2 45 7 85 22 85 32 126 33 272 10 139 -21 285 -12 395 27 25 9
51 16 58 16 7 0 31 9 55 19 23 11 80 33 127 51 132 49 375 175 466 241 121 88
199 182 268 325 80 163 72 200 -35 170 -45 -13 -68 -15 -92 -7 -44 13 -108 21
-217 27 -51 2 -101 9 -112 15 -12 7 -64 8 -147 3 -104 -5 -130 -4 -141 8 -21
21 -54 29 -143 37 -114 9 -101 25 24 29 101 2 107 2 112 -18 5 -20 10 -21 124
-15 143 8 147 8 248 1 83 -6 129 -1 121 13 -5 8 -203 25 -276 24 -19 -1 -75 1
-123 4 -74 4 -88 8 -85 21 4 20 37 30 109 31 53 1 89 18 72 34 -10 10 -68 8
-98 -3 -21 -8 -34 -7 -59 6 -47 25 -118 35 -254 36 -113 0 -194 -14 -176 -31
7 -7 72 -10 184 -8 160 3 220 -6 220 -32 0 -15 -60 -17 -269 -7 -198 8 -204 8
-247 -13 -24 -13 -44 -26 -44 -31 0 -10 163 -2 216 12 35 8 46 7 68 -8 36 -23
18 -34 -54 -34 -30 0 -95 -4 -145 -10 -64 -7 -96 -7 -111 1 -16 8 -35 7 -78
-4 l-57 -14 20 21 c11 12 37 30 58 40 21 11 64 37 95 58 32 21 62 38 68 38 18
0 11 13 -29 55 -21 22 -58 76 -81 120 -24 44 -92 160 -151 257 -155 254 -184
318 -145 318 23 0 112 -87 203 -197 46 -57 95 -109 106 -115 25 -13 75 -12 92
2 13 11 111 -44 107 -60 -1 -6 5 -24 13 -40 8 -16 15 -38 15 -49 0 -12 9 -26
20 -33 12 -7 35 -34 51 -60 17 -27 37 -48 45 -48 7 0 28 13 46 29 18 16 49 38
68 50 23 14 29 21 17 21 -23 0 -33 26 -17 45 10 12 9 15 -4 15 -9 0 -16 5 -16
12 0 6 -12 26 -26 45 -14 18 -26 46 -27 61 -1 15 -8 33 -14 40 -8 8 -13 39
-13 75 0 58 3 64 39 103 24 25 64 50 107 68 38 16 98 41 134 56 82 35 312 107
382 120 73 14 148 -1 168 -32 8 -12 36 -46 61 -74 25 -28 54 -65 65 -83 22
-38 54 -42 54 -7 0 28 -109 164 -153 191 -44 26 -31 48 33 58 30 4 65 5 76 3
22 -6 183 -144 310 -267 68 -66 94 -82 94 -58 0 7 11 8 29 4 18 -4 32 -2 37 6
5 8 3 9 -6 4 -9 -5 -11 -4 -6 3 4 7 20 12 37 12 26 0 34 9 30 33 0 4 10 7 23
7 14 0 41 15 63 36 21 20 47 38 57 40 11 2 36 14 55 27 20 14 51 28 69 32 17
3 34 11 37 16 4 5 16 9 28 9 12 0 35 7 50 15 16 8 50 21 76 29 26 8 65 23 87
34 79 40 260 84 469 113 140 20 201 23 485 23 266 0 338 -3 395 -16 140 -33
243 -65 332 -104 17 -8 35 -14 40 -14 5 0 38 -15 73 -34 36 -19 84 -43 106
-55 23 -11 62 -41 88 -66 26 -25 52 -45 59 -45 24 0 243 59 302 81 110 41 279
138 296 171 9 16 0 30 -62 96 -40 42 -95 94 -123 115 -141 108 -342 195 -526
229 -108 19 -138 20 -480 14 -343 -5 -703 -24 -913 -46 -185 -20 -993 -142
-1412 -214 -110 -19 -270 -39 -355 -45 -85 -6 -202 -16 -260 -21 -58 -5 -148
-12 -200 -15 -52 -3 -174 -13 -270 -21 -200 -18 -491 -16 -527 4 -27 15 -30
42 -5 43 47 2 136 10 217 20 50 5 149 14 220 19 72 5 145 14 162 19 18 5 74
12 125 16 98 6 221 22 251 31 18 6 17 7 -2 21 -12 8 -21 20 -21 27 0 20 -59
24 -202 13 -140 -11 -180 -6 -176 21 2 9 -2 16 -9 15 -7 -2 -24 1 -37 7 -14 5
-75 11 -136 14 -62 2 -114 7 -117 10 -13 13 12 26 50 26 23 1 69 7 102 15 33
8 77 15 98 15 24 0 44 7 57 20 24 24 31 25 23 4 -5 -14 0 -16 38 -10 24 3 100
10 169 15 69 5 154 16 190 24 58 14 68 14 89 0 34 -22 120 -18 199 8 53 18 62
24 62 45 0 35 -58 63 -95 46 -35 -16 -129 -15 -190 2 -27 8 -90 30 -140 50
-49 20 -105 39 -122 42 -18 3 -33 11 -33 16 0 6 -9 8 -20 5 -11 -3 -23 -1 -26
4 -3 5 -9 7 -14 4 -4 -3 -11 2 -14 11 -4 9 -9 14 -13 11 -3 -3 -19 1 -36 10
-17 8 -44 17 -61 20 -17 3 -43 11 -58 19 -15 8 -32 14 -38 14 -23 0 -86 35
-107 59 -13 15 -25 42 -28 61 -8 49 -48 131 -84 172 -17 19 -58 47 -92 63 -53
23 -71 27 -133 23 -90 -5 -151 -33 -205 -94 -23 -26 -41 -51 -41 -55 0 -17 27
-9 66 19 67 49 163 69 192 40 20 -20 14 -31 -13 -24 -16 4 -38 -1 -62 -14 -21
-11 -43 -20 -50 -20 -16 0 -17 -16 -1 -26 15 -9 -19 -35 -37 -27 -13 4 -105
-43 -105 -54 0 -3 16 -2 35 1 31 6 36 4 44 -17 5 -13 17 -27 25 -30 9 -4 16
-12 16 -20 0 -31 63 -60 167 -77 57 -10 106 -20 109 -23 3 -3 2 -37 -2 -76 -5
-57 -12 -79 -35 -108 -16 -20 -29 -42 -29 -49 0 -12 -37 -44 -51 -44 -4 0 -10
11 -13 24 -9 35 -51 42 -107 17 -24 -11 -53 -20 -64 -20 -18 0 -17 2 8 22 15
13 27 29 27 36 0 10 -8 11 -27 6 -69 -17 -93 -17 -93 -2 0 8 7 20 15 27 19 16
10 30 -21 30 -27 0 -30 11 -12 39 9 15 9 23 -1 35 -17 20 -35 20 -64 2 -12 -8
-32 -17 -44 -21 -34 -10 -29 12 12 51 19 18 35 36 35 41 0 4 17 22 37 40 l38
32 -28 1 c-21 0 -48 -17 -103 -65 -72 -62 -109 -82 -136 -72 -7 2 4 11 25 20
25 11 37 22 37 36 0 26 -7 26 -45 1 -16 -11 -37 -20 -46 -20 -8 0 -31 -16 -49
-35 -29 -30 -41 -35 -70 -33 -33 3 -35 5 -42 48 -3 25 -1 70 5 101 10 54 9 59
-20 110 -16 30 -36 72 -43 94 -7 22 -26 66 -41 97 -16 32 -29 72 -28 90 1 83
-19 195 -44 245 -15 29 -27 69 -27 90 0 21 -14 83 -31 138 -17 55 -37 123 -44
150 -23 86 -91 265 -107 280 -20 19 0 -76 46 -225 25 -80 50 -179 57 -220 6
-41 18 -88 26 -105 9 -16 22 -81 29 -144 16 -129 104 -492 134 -551 11 -21 30
-89 42 -151 20 -100 20 -114 7 -138 -23 -40 -48 -33 -68 19 -10 25 -27 65 -38
90 -38 82 -113 322 -164 520 -55 216 -60 230 -152 515 -123 379 -148 480 -162
655 -8 107 -14 142 -25 135 -5 -3 -17 7 -27 22 -10 15 -43 53 -74 84 -31 30
-60 65 -63 77 -4 12 -12 22 -18 22 -25 0 20 -325 59 -426 4 -11 3 -15 -4 -11
-20 12 -74 140 -98 227 -29 109 -40 276 -18 284 8 3 19 4 24 0 5 -3 9 15 9 41
0 52 31 120 104 228 25 38 46 75 46 83 0 8 12 24 26 37 15 12 49 55 75 95 27
41 66 86 88 100 44 31 80 72 105 120 9 17 15 32 14 32 -2 0 -18 -4 -36 -9 -28
-8 -34 -7 -45 10 -20 31 -54 23 -107 -27z m37 -2120 c16 -49 63 -247 59 -251
-4 -5 -56 22 -56 29 0 10 -30 38 -41 38 -5 0 -9 -7 -9 -15 0 -12 -6 -12 -45
-1 -43 13 -45 13 -45 -7 0 -20 0 -20 -21 -1 l-20 18 20 8 c13 4 19 13 15 23
-9 22 -31 18 -39 -7 -4 -14 -8 -18 -11 -11 -9 22 149 227 169 220 6 -2 17 -21
24 -43z m2335 -2590 c7 -5 33 -9 57 -9 33 0 47 -5 58 -22 l14 -21 -134 4 c-74
2 -147 8 -162 14 -39 15 -75 12 -124 -11 -40 -17 -46 -18 -53 -4 -6 10 -24 15
-54 15 -32 0 -44 4 -42 13 6 15 71 21 96 8 14 -8 28 -5 53 9 29 15 52 18 156
15 66 -1 127 -6 135 -11z m-2863 -2280 c31 -14 72 -34 91 -44 19 -9 68 -30
107 -45 40 -14 75 -31 79 -36 3 -5 13 -9 23 -9 10 0 51 -17 92 -39 41 -21 100
-45 132 -52 32 -7 60 -16 63 -21 3 -4 13 -8 23 -8 28 0 58 -27 45 -40 -9 -9
-24 -7 -60 10 -27 11 -79 25 -115 29 -64 9 -107 25 -219 87 -30 17 -81 41
-113 53 -33 12 -88 37 -124 56 -37 19 -72 35 -79 35 -7 0 -25 5 -41 11 -27 10
-27 11 -9 25 27 19 41 18 105 -12z m-74 -90 c50 -9 104 -24 120 -34 17 -10 64
-30 105 -45 85 -30 123 -52 115 -65 -10 -16 -167 21 -195 45 -34 30 -155 85
-186 85 -38 0 -64 9 -64 21 0 12 0 12 105 -7z m194 -180 c16 -3 35 -12 43 -21
7 -9 31 -24 53 -34 22 -10 52 -28 66 -39 21 -18 40 -21 105 -22 43 0 88 -5 99
-11 18 -10 14 -12 -30 -18 -96 -14 -182 -10 -189 6 -3 9 -23 24 -43 33 -21 9
-52 26 -68 38 -17 11 -49 26 -71 32 -28 8 -44 19 -47 33 -6 22 -12 21 82 3z
m-399 -84 c141 -54 168 -62 190 -50 17 9 31 5 83 -24 34 -19 78 -37 97 -41 19
-4 41 -12 50 -17 11 -7 27 -5 54 6 48 20 96 21 122 2 34 -26 4 -34 -128 -38
-123 -3 -128 -2 -143 20 -24 34 -90 63 -153 67 -54 4 -84 13 -180 56 -23 10
-56 19 -73 19 -27 0 -30 2 -18 16 14 17 17 16 99 -16z m-587 -990 c43 -35 56
-51 56 -73 1 -24 9 -31 54 -51 29 -13 59 -31 66 -40 9 -10 29 -16 60 -16 48 0
143 -28 164 -49 6 -6 16 -11 22 -11 6 0 26 -11 45 -25 26 -19 46 -25 85 -25
64 0 112 -15 146 -46 14 -13 33 -24 43 -24 21 0 79 -33 113 -63 17 -15 20 -24
12 -38 -8 -16 -5 -21 16 -31 14 -6 24 -16 22 -22 -5 -15 -77 -19 -110 -7 -34
13 -38 46 -4 38 12 -3 31 -2 42 2 18 7 18 9 -8 23 -22 11 -42 12 -92 5 -58 -8
-69 -7 -119 16 -33 15 -56 32 -56 41 0 21 21 20 67 -3 94 -48 110 -33 32 29
-57 45 -56 45 -110 29 -34 -11 -40 -10 -56 8 -10 12 -43 33 -73 48 -30 15 -71
36 -91 46 -41 21 -69 24 -69 8 0 -17 -48 -4 -100 26 -25 15 -63 37 -85 50 -24
15 -58 51 -85 92 -25 37 -59 75 -75 83 -37 18 -42 32 -18 41 20 8 26 4 106
-61z m-262 -775 c20 -4 69 -26 109 -50 58 -34 101 -74 216 -200 80 -87 142
-160 140 -162 -3 -3 -18 -2 -35 2 -21 4 -47 27 -87 76 -76 93 -157 166 -194
174 -19 4 -36 17 -45 35 -18 35 -78 73 -103 66 -10 -4 -67 -8 -126 -11 -103
-5 -128 -12 -178 -47 -13 -9 -20 -10 -28 -2 -34 34 206 143 280 128 8 -2 31
-6 51 -9z m-21 -126 c19 -34 5 -52 -35 -45 -22 5 -44 2 -62 -8 -37 -19 -119
-105 -128 -133 -3 -13 -11 -23 -16 -23 -12 0 -11 37 2 62 14 26 -10 46 -27 23
-21 -28 -35 -17 -17 13 23 36 36 45 113 84 104 52 153 60 170 27z"/>
<path d="M15620 22116 c-30 -7 -72 -20 -92 -29 -21 -8 -59 -19 -85 -22 -87
-12 -296 -56 -453 -95 -85 -21 -195 -48 -245 -60 -49 -12 -163 -37 -252 -55
-89 -18 -186 -40 -215 -49 -54 -15 -227 -55 -613 -141 -110 -24 -214 -49 -230
-55 -17 -5 -86 -21 -154 -35 -68 -14 -162 -41 -210 -61 -93 -39 -134 -47 -313
-63 -210 -20 -524 -37 -580 -33 -20 2 -53 -1 -72 -6 -25 -7 -45 -6 -73 4 -75
26 -210 13 -197 -20 9 -23 33 -29 134 -33 52 -2 124 -6 160 -9 36 -3 142 -8
236 -13 93 -4 174 -10 180 -13 18 -12 331 13 476 37 81 14 165 25 186 25 20 0
69 9 107 21 39 11 90 25 115 29 25 5 60 12 79 16 l33 7 -16 -26 c-16 -24 -16
-25 12 -35 15 -5 42 -24 59 -41 43 -43 99 -43 191 1 61 29 76 32 167 32 l100
1 76 48 c67 41 84 47 130 47 40 0 67 7 99 25 101 57 132 67 187 61 60 -7 117
9 194 55 35 20 63 29 95 29 74 0 223 58 208 81 -3 5 -14 9 -24 9 -11 0 -28 10
-39 21 -18 19 -27 21 -83 15 -35 -4 -68 -10 -74 -14 -16 -10 -34 -48 -34 -71
0 -17 -6 -21 -32 -21 -18 0 -42 7 -52 15 -11 8 -40 15 -65 15 -56 0 -93 9 -85
21 17 28 175 79 247 79 24 0 61 13 101 35 51 28 75 35 119 35 31 0 63 -3 72
-6 14 -6 13 -8 -5 -21 -11 -8 -20 -20 -20 -28 0 -23 22 -64 38 -70 35 -13 222
41 222 65 0 5 -20 12 -45 16 -25 3 -45 10 -45 15 0 5 -24 9 -54 9 -30 0 -57 4
-60 9 -11 17 53 59 106 71 70 16 114 11 110 -12 -1 -10 4 -30 11 -45 8 -16 12
-34 9 -42 -4 -11 8 -13 64 -9 107 8 200 65 123 76 -13 2 -32 10 -43 18 -12 8
-46 14 -83 14 -37 0 -63 4 -63 10 0 6 28 24 63 40 47 23 76 30 123 30 33 0 64
3 68 8 4 4 39 18 78 32 39 14 73 30 75 36 4 12 -48 35 -76 33 -9 0 -41 -6 -71
-13z m-1130 -415 c0 -6 -4 -13 -10 -16 -5 -3 -10 -21 -10 -39 0 -29 -4 -34
-36 -44 -42 -13 -60 -8 -67 19 -4 15 -14 19 -49 19 -54 0 -65 8 -37 28 48 33
209 59 209 33z"/>
<path d="M11713 22108 c-5 -7 -22 -34 -37 -60 -109 -191 -144 -309 -161 -530
-6 -77 -5 -88 9 -88 26 0 166 70 167 83 0 7 0 68 -1 137 0 69 5 161 11 205 6
44 11 94 10 110 -1 17 4 56 10 88 12 59 9 77 -8 55z"/>
<path d="M16685 21856 c-178 -30 -310 -92 -458 -215 -135 -112 -163 -131 -197
-138 -19 -3 -93 2 -165 12 -214 30 -256 22 -271 -51 -4 -24 0 -37 18 -57 21
-25 33 -28 158 -42 74 -8 163 -15 197 -15 l61 0 44 -78 c23 -42 59 -108 78
-145 19 -37 47 -82 61 -99 32 -39 53 -31 37 14 -15 43 -164 269 -195 294 -32
27 -25 53 19 79 18 10 71 51 118 90 135 114 248 185 293 185 14 0 31 9 39 21
18 28 134 58 253 66 158 10 365 -53 476 -144 25 -21 80 -66 123 -101 42 -35
74 -67 70 -73 -4 -6 -15 -4 -30 6 -24 15 -64 13 -64 -5 0 -8 85 -25 108 -21 8
1 37 -15 65 -37 82 -61 85 -62 254 -66 87 -3 168 -5 179 -5 12 -1 36 -14 54
-31 18 -16 36 -27 41 -24 16 10 9 78 -11 112 -34 55 -76 66 -203 54 -70 -6
-120 -7 -143 -1 -40 12 -121 66 -271 182 -158 123 -261 181 -373 212 -117 32
-255 39 -365 21z"/>
<path d="M16228 21393 c-20 -15 -40 -35 -43 -42 -8 -19 43 -91 127 -180 66
-70 92 -83 116 -59 21 21 13 36 -37 63 -47 26 -171 152 -171 174 0 6 7 11 15
11 16 0 38 35 33 51 -2 6 -20 -3 -40 -18z"/>
<path d="M13380 21385 l-65 -24 -3 -49 -3 -49 63 -6 c56 -5 67 -3 101 19 20
13 37 28 37 32 0 5 -16 16 -36 26 -33 15 -36 20 -30 46 3 17 4 30 3 29 -1 -1
-31 -11 -67 -24z"/>
<path d="M16822 21321 c-18 -5 -35 -11 -38 -13 -10 -11 108 -16 135 -7 37 13
142 -11 207 -47 116 -64 126 -73 122 -105 -4 -26 -2 -29 24 -29 34 0 63 -13
97 -44 22 -20 23 -20 20 -1 -2 10 -47 56 -98 102 -121 107 -208 144 -346 149
-49 2 -105 -1 -123 -5z"/>
<path d="M14945 21010 c-83 -9 -117 -27 -113 -59 2 -20 16 -32 62 -56 57 -29
65 -30 185 -30 123 1 472 20 601 33 56 6 65 10 65 27 0 15 -8 21 -30 23 -16 2
-42 15 -58 30 -25 24 -37 27 -140 33 -135 9 -488 9 -572 -1z"/>
<path d="M18381 20992 c-29 -2 -49 -10 -60 -23 -10 -12 -34 -23 -59 -26 -23
-3 -45 -10 -48 -14 -14 -23 87 -32 512 -45 134 -4 163 -2 173 10 30 36 -21 82
-101 91 -57 6 -361 12 -417 7z"/>
<path d="M16467 20973 c-4 -6 -4 -18 -1 -26 11 -29 -31 -37 -182 -37 -81 0
-145 -3 -141 -6 3 -4 76 -7 162 -9 87 -1 160 -6 166 -12 14 -14 1 -41 -23 -49
-20 -6 -20 -6 2 -18 23 -11 36 -32 89 -142 37 -77 30 -96 -37 -94 -75 3 -94 1
-87 -10 3 -5 33 -10 66 -10 68 0 105 -13 180 -64 30 -20 57 -36 61 -36 5 0 8
13 8 30 0 25 -6 32 -42 48 -90 41 -143 131 -175 297 -8 44 -18 85 -23 90 -4 6
-10 21 -12 35 -2 16 -6 21 -11 13z"/>
<path d="M12577 20916 c-92 -25 -147 -91 -147 -179 0 -110 94 -188 212 -174
92 11 148 70 162 167 13 91 -31 159 -118 185 -57 17 -48 17 -109 1z"/>
<path d="M15725 20860 c-11 -5 -37 -9 -57 -9 -68 -2 -72 -9 -33 -52 19 -22 35
-43 35 -48 0 -24 176 -112 260 -131 19 -4 60 -17 90 -29 30 -12 91 -26 135
-32 82 -10 141 -36 179 -78 24 -27 15 -36 -32 -33 -55 3 -23 -11 98 -42 58
-15 125 -39 150 -53 137 -80 216 -115 320 -143 147 -40 187 -60 228 -115 25
-35 39 -45 61 -45 29 0 57 21 44 33 -3 4 -17 7 -29 7 -20 0 -64 41 -64 60 0
11 49 30 79 30 18 0 34 -8 43 -22 l15 -23 39 27 c21 14 57 31 79 38 54 17 60
21 43 31 -9 5 -41 0 -79 -12 -83 -27 -211 -26 -357 2 -171 33 -256 68 -304
128 -16 20 -41 34 -83 46 -87 24 -255 119 -281 158 -17 27 -25 32 -55 30 -45
-3 -121 14 -185 43 -36 16 -63 21 -86 18 -26 -5 -54 4 -123 35 -114 53 -163
97 -149 135 5 13 36 14 232 11 150 -3 213 -1 187 5 -22 5 -83 9 -135 9 -84 1
-160 9 -225 25 -11 3 -29 1 -40 -4z"/>
<path d="M13550 20808 c0 -64 -14 -68 -65 -18 l-45 44 0 -34 c0 -19 11 -66 25
-105 13 -38 25 -80 25 -91 0 -25 40 -124 50 -124 3 0 17 11 30 25 l23 25 -20
23 c-30 34 -83 116 -83 130 0 7 7 23 16 35 13 19 21 21 54 16 51 -8 61 13 32
64 -27 48 -42 52 -42 10z"/>
<path d="M16884 20795 c-5 -11 2 -25 19 -41 15 -13 31 -43 37 -67 32 -124 77
-244 103 -271 44 -47 43 -22 -2 43 -29 43 -41 71 -41 96 0 19 3 35 6 35 13 0
52 -26 122 -82 76 -60 185 -122 204 -116 12 4 -60 59 -137 103 -27 16 -71 51
-97 77 -26 26 -55 48 -65 48 -37 0 -46 16 -40 62 6 43 5 44 -26 54 -18 5 -41
23 -54 43 -19 28 -24 31 -29 16z"/>
<path d="M15456 20701 c-17 -7 -14 -11 25 -38 105 -72 173 -98 311 -118 29 -5
42 -13 53 -35 8 -16 34 -40 58 -54 58 -34 159 -66 185 -59 16 4 33 -4 60 -29
22 -20 61 -43 88 -53 27 -9 86 -35 132 -57 128 -60 178 -77 240 -84 75 -8 119
-22 126 -40 16 -40 269 -115 297 -87 7 7 -16 18 -78 38 -48 15 -117 45 -152
66 -36 21 -77 39 -91 39 -47 0 -180 39 -238 69 -32 16 -81 37 -111 46 -63 19
-155 75 -170 104 -7 12 -26 23 -49 26 -98 17 -181 54 -238 107 -22 20 -47 31
-89 38 -83 14 -174 46 -238 84 -63 38 -94 47 -121 37z"/>
<path d="M11920 20613 c0 -28 45 -212 56 -229 10 -17 11 -28 1 -53 -22 -59 28
-125 54 -69 8 18 7 35 -5 68 -13 39 -13 46 -1 60 8 9 15 23 15 30 0 27 -91
200 -106 200 -8 0 -14 -3 -14 -7z"/>
<path d="M13553 20423 c6 -34 75 -203 89 -220 15 -19 39 -16 65 8 18 18 25 20
37 10 22 -18 60 -10 64 14 4 26 -98 205 -116 205 -9 0 -12 -6 -8 -15 16 -43
37 -127 33 -132 -10 -9 -27 8 -41 40 -19 43 -89 117 -111 117 -13 0 -16 -6
-12 -27z"/>
<path d="M12007 20186 c-3 -8 0 -54 7 -102 13 -92 27 -114 72 -114 55 0 69 27
36 71 -10 13 -26 44 -36 69 -32 82 -65 114 -79 76z"/>
<path d="M13793 20163 c-7 -2 -13 -12 -13 -21 0 -9 -4 -23 -9 -31 -7 -11 -14
-10 -39 8 -17 11 -33 21 -37 21 -12 0 5 -72 29 -125 13 -27 35 -84 51 -125 60
-164 89 -236 105 -260 9 -14 29 -55 44 -92 15 -36 37 -74 48 -84 19 -18 20
-18 36 4 16 20 19 21 62 8 l45 -13 10 -95 c11 -98 26 -132 54 -124 9 3 28 8
44 12 39 9 34 -13 -8 -33 -40 -19 -45 -38 -12 -46 12 -4 31 -13 42 -22 20 -15
20 -15 1 -30 -27 -21 -60 -19 -81 6 -16 16 -26 19 -60 13 -47 -7 -108 -41
-102 -57 7 -23 63 -26 157 -11 52 9 131 19 175 24 44 4 100 13 124 20 25 6 79
15 120 20 42 4 141 20 221 33 80 14 206 33 280 42 74 9 169 24 210 34 41 11
118 24 170 31 52 6 120 17 150 25 30 7 73 13 95 14 49 1 175 42 172 56 -1 6
-37 10 -82 10 -69 0 -84 -3 -112 -24 -32 -24 -34 -24 -68 -8 -23 11 -61 17
-104 17 -59 0 -73 -4 -116 -32 -42 -28 -59 -33 -119 -35 -39 -2 -96 -7 -126
-13 -30 -6 -86 -13 -125 -17 l-70 -6 19 21 c28 31 14 52 -34 52 -22 0 -40 4
-40 8 0 15 54 56 89 68 44 15 58 10 77 -28 l16 -30 68 6 c63 7 68 6 73 -14 5
-20 6 -20 44 -5 21 9 48 21 60 25 58 23 25 50 -39 31 -49 -15 -55 -11 -33 23
25 38 7 55 -58 55 -29 0 -77 0 -107 0 -63 0 -112 -11 -190 -44 -30 -13 -81
-33 -112 -45 -32 -12 -58 -26 -58 -29 0 -4 11 -18 24 -30 23 -22 25 -22 77 -7
65 20 62 20 49 -4 -6 -12 -8 -30 -5 -41 5 -16 -1 -22 -30 -35 -30 -12 -47 -13
-87 -5 -27 6 -63 11 -81 12 l-32 0 23 16 c21 15 22 17 6 35 -16 17 -16 20 5
41 21 23 21 24 2 41 -17 16 -22 16 -54 3 -48 -20 -150 -26 -170 -9 -8 7 -39
13 -69 13 -93 0 -151 16 -165 46 -7 15 -13 37 -13 50 0 29 -20 71 -47 102 -13
13 -23 30 -23 37 0 8 -4 14 -9 14 -5 0 -14 14 -20 30 -5 17 -17 33 -26 36 -8
3 -15 10 -15 16 0 5 -17 35 -38 66 -37 56 -73 127 -86 168 -4 12 -15 29 -26
39 -11 10 -20 31 -20 46 0 15 -10 40 -23 56 -13 15 -31 40 -40 56 -18 27 -22
29 -44 20z m642 -821 c6 -4 10 -27 10 -50 -2 -54 12 -61 65 -37 43 20 70 10
70 -25 0 -51 -33 -61 -138 -41 -54 11 -59 16 -37 41 18 20 17 20 -11 20 -16 0
-34 4 -41 8 -15 10 -9 72 8 83 17 11 60 11 74 1z"/>
<path d="M12096 19915 c-3 -9 1 -35 8 -58 8 -23 26 -98 41 -167 15 -69 29
-128 32 -132 10 -17 40 -6 61 21 21 28 21 29 2 46 -11 10 -24 34 -30 54 -7 20
-23 65 -38 99 -21 52 -24 67 -14 83 17 26 15 56 -4 63 -27 10 -52 7 -58 -9z"/>
<path d="M16295 19624 c-41 -8 -94 -11 -130 -8 -113 12 -220 11 -295 -2 -41
-7 -127 -18 -190 -24 -124 -13 -173 -22 -262 -51 -32 -11 -70 -19 -86 -19 -15
0 -37 -7 -48 -15 -18 -14 -17 -14 13 -15 21 0 44 -10 66 -30 19 -17 46 -30 60
-30 30 0 77 19 77 32 0 4 9 17 20 28 27 27 72 25 124 -5 39 -23 45 -24 57 -9
20 24 105 64 137 64 16 0 37 -9 47 -20 13 -14 31 -20 61 -20 56 0 73 7 67 29
-4 14 5 21 41 31 41 11 48 10 79 -9 47 -29 122 -29 137 0 14 25 68 49 110 49
23 0 33 -6 42 -25 10 -22 17 -25 63 -25 39 0 59 6 85 25 19 14 39 25 46 25 7
0 15 4 18 9 4 5 -29 9 -76 10 -46 0 -107 5 -137 11 -29 5 -54 9 -55 9 0 -1
-32 -8 -71 -15z"/>
<path d="M15998 19429 c-28 -16 -41 -48 -27 -65 22 -27 229 -8 231 21 0 6 -9
15 -21 21 -13 7 -28 17 -34 23 -14 14 -126 14 -149 0z"/>
<path d="M18393 19042 c-85 -73 -338 -240 -428 -281 -33 -15 -89 -46 -124 -69
-64 -42 -205 -113 -296 -150 -94 -38 -305 -112 -318 -112 -7 0 -39 -13 -72
-30 -33 -16 -66 -30 -74 -30 -16 0 -350 -97 -486 -141 -112 -36 -252 -73 -370
-99 -49 -11 -112 -28 -140 -39 -27 -11 -68 -22 -90 -25 -22 -3 -107 -21 -190
-40 -190 -45 -406 -86 -446 -86 -17 0 -70 -9 -118 -19 -47 -11 -126 -25 -176
-32 -49 -6 -105 -18 -124 -25 -18 -8 -44 -14 -57 -14 -27 0 -35 -10 -28 -36
10 -39 277 -17 331 27 10 9 20 9 39 0 36 -16 73 -14 140 10 32 11 97 24 144
29 51 4 113 18 153 34 52 20 86 26 144 26 65 0 86 5 156 36 56 25 92 36 121
34 22 -1 48 -1 57 -1 9 0 55 19 103 42 82 41 89 42 128 32 41 -11 45 -10 113
30 63 38 77 42 138 43 59 1 72 5 95 27 37 35 73 47 144 47 39 0 67 5 77 14 25
23 172 76 209 76 21 0 74 20 135 50 55 28 112 50 127 50 14 0 62 22 106 50 45
27 103 54 130 60 27 6 83 33 124 60 41 26 97 56 125 65 27 9 74 37 105 62 30
25 78 56 105 69 53 25 171 120 267 217 51 50 65 68 56 67 -2 0 -17 -13 -35
-28z"/>
<path d="M12880 18208 c1 -44 26 -107 69 -173 27 -41 55 -91 61 -110 13 -40
20 -42 43 -17 22 25 21 39 -3 52 -29 16 -43 57 -31 91 9 25 6 31 -25 58 -19
17 -34 35 -34 40 0 5 -12 23 -26 40 -26 32 -54 41 -54 19z"/>
<path d="M14361 18186 c-15 -18 -7 -38 52 -123 53 -78 75 -89 101 -52 14 20
13 26 -7 61 -32 58 -96 128 -117 128 -9 0 -23 -6 -29 -14z"/>
<path d="M19416 18103 c-15 -15 -38 -48 -53 -73 -14 -25 -56 -92 -94 -150 -77
-119 -93 -160 -61 -160 30 0 72 38 72 65 0 13 5 48 11 77 9 42 22 63 61 103
44 44 106 151 94 162 -2 2 -16 -8 -30 -24z"/>
<path d="M13915 18031 c66 -37 83 -69 66 -117 -16 -43 -5 -59 57 -86 47 -21
72 -62 72 -117 0 -50 34 -52 62 -3 56 99 9 233 -103 291 -56 30 -149 61 -179
61 -21 0 -17 -5 25 -29z"/>
<path d="M16141 17972 c-14 -24 32 -79 72 -85 72 -11 195 37 157 63 -8 5 -31
10 -51 10 -24 0 -39 6 -43 15 -8 22 -123 19 -135 -3z"/>
<path d="M15857 17902 c-16 -17 -16 -20 6 -39 53 -48 112 -56 177 -23 52 27
58 39 21 46 -17 4 -31 13 -31 20 0 11 -19 14 -78 14 -64 0 -82 -4 -95 -18z"/>
<path d="M17445 17545 c-40 -25 -115 -35 -115 -15 0 6 -4 10 -10 10 -5 0 -10
-6 -10 -14 0 -18 -35 -27 -49 -13 -7 7 -17 5 -31 -8 -28 -26 -25 -39 15 -58
19 -9 35 -22 35 -27 0 -7 15 -10 38 -8 30 2 38 7 40 25 7 46 77 69 118 38 27
-20 63 -18 102 5 37 23 38 27 14 56 -11 14 -33 24 -62 28 -37 5 -52 1 -85 -19z"/>
<path d="M17008 17489 c-10 -5 -18 -17 -18 -25 0 -12 -9 -14 -47 -9 -27 4 -61
11 -77 17 -24 10 -31 9 -41 -5 -7 -9 -20 -17 -29 -17 -10 0 -25 -4 -35 -9 -9
-5 -84 -13 -166 -16 -83 -4 -152 -11 -153 -16 -3 -6 -8 -6 -15 -1 -7 5 -34 7
-62 3 -27 -4 -105 -6 -172 -5 -68 1 -123 -2 -123 -5 0 -4 -35 -7 -77 -7 -118
1 -334 -14 -354 -25 -10 -5 -31 -9 -48 -9 -17 0 -31 -4 -31 -10 0 -6 -31 -10
-74 -10 -53 0 -77 -4 -86 -15 -7 -8 -19 -15 -27 -15 -8 0 -11 -4 -8 -10 3 -5
-2 -10 -13 -10 -10 0 -27 -9 -37 -20 -10 -11 -29 -20 -42 -20 -16 0 -27 -7
-30 -19 -6 -22 -29 -34 -45 -24 -7 3 -8 1 -4 -5 5 -8 -3 -12 -23 -12 -17 0
-31 -4 -31 -9 0 -17 30 -33 52 -26 l23 6 -24 -19 c-21 -17 -22 -20 -6 -26 26
-10 12 -18 -19 -10 -14 3 -26 11 -26 18 0 7 -20 17 -45 24 -25 7 -45 16 -45
22 0 5 -11 10 -25 10 -14 0 -25 -4 -25 -10 0 -18 -22 -10 -27 10 -5 19 -14 24
-40 21 -7 -1 -13 5 -13 13 0 9 -8 20 -19 25 -21 12 -37 49 -45 105 -3 21 -7
41 -10 44 -9 9 -37 -20 -57 -61 -32 -61 -347 -369 -534 -520 -93 -76 -199
-163 -235 -193 -103 -88 -329 -247 -478 -335 -274 -164 -400 -267 -547 -449
-113 -141 -230 -375 -288 -580 -19 -66 -36 -201 -25 -194 4 3 8 10 8 15 0 21
144 295 195 374 68 102 242 273 322 315 32 16 69 36 83 44 14 7 36 19 50 25
14 6 32 15 40 19 57 33 81 46 130 68 30 14 83 36 117 49 34 13 82 35 108 49
25 14 50 26 55 26 18 0 237 128 263 153 14 15 30 27 35 27 5 0 15 14 22 30 7
17 20 36 30 43 9 7 20 22 24 35 4 12 16 27 27 33 11 5 24 20 29 32 6 12 39 63
75 112 36 50 73 103 82 119 49 80 120 151 207 207 50 33 96 70 104 84 16 31
34 33 30 3 -3 -20 2 -23 40 -26 46 -3 95 19 90 41 -2 7 15 31 37 55 40 42 73
53 105 32 10 -6 25 -3 50 11 19 12 44 23 55 26 85 21 108 16 158 -32 20 -19
42 -35 49 -35 19 0 137 38 156 50 13 8 -3 10 -58 8 -68 -3 -75 -1 -75 16 0 26
60 56 114 56 38 0 49 -5 82 -40 44 -46 64 -49 141 -20 103 39 106 55 7 41 -35
-5 -68 -6 -72 -4 -15 9 56 61 91 68 38 7 72 -1 72 -18 0 -7 14 -25 30 -41 l29
-28 73 16 c40 9 80 21 88 26 23 14 6 22 -24 10 -20 -7 -36 -6 -63 5 l-36 15
24 19 c29 22 64 29 189 39 52 5 104 13 115 19 28 15 187 15 182 0 -4 -13 -24
-24 -59 -32 -16 -3 -28 -10 -28 -16 0 -7 10 -9 28 -5 15 4 53 8 84 9 68 2 78
10 47 36 -20 16 -21 21 -10 34 19 24 117 33 139 14 22 -19 122 -31 142 -17 13
9 13 12 -2 21 -24 13 -23 36 2 49 11 6 18 15 15 20 -10 17 21 16 59 -1 22 -9
45 -15 53 -12 9 4 16 -3 20 -16 6 -24 50 -29 86 -9 l22 12 -24 6 c-38 9 -35
24 8 54 49 34 96 29 112 -11 9 -24 13 -25 59 -20 27 3 60 12 72 19 22 13 22
13 -14 16 -21 2 -38 7 -38 11 0 5 11 25 25 45 30 44 31 50 6 34 -15 -9 -22 -8
-36 5 -20 20 -29 21 -56 5 -17 -11 -22 -10 -33 5 -15 20 -15 20 -38 6z"/>
<path d="M18844 17380 c-55 -85 -77 -137 -67 -153 4 -7 8 -113 9 -237 1 -177
5 -257 23 -375 29 -201 82 -509 126 -735 20 -102 53 -286 75 -410 100 -583
228 -1242 244 -1257 11 -11 51 14 65 41 13 23 11 44 -18 194 -17 92 -36 183
-41 202 -10 39 -72 341 -88 435 -6 33 -25 125 -41 205 -16 80 -39 197 -50 260
-11 63 -29 158 -40 210 -114 537 -183 989 -197 1275 -6 132 5 230 40 363 8 28
12 52 10 52 -2 0 -25 -32 -50 -70z"/>
<path d="M14408 17242 c-132 -113 -134 -116 -120 -147 7 -14 18 -25 27 -25 25
0 134 121 199 222 36 56 -6 36 -106 -50z"/>
<path d="M18706 17158 c-9 -13 -42 -61 -73 -108 -31 -47 -77 -110 -103 -140
-49 -58 -132 -173 -220 -305 -50 -74 -113 -155 -249 -317 -76 -92 -120 -101
-135 -28 -6 33 -35 41 -56 15 -7 -8 -19 -15 -26 -15 -19 0 -48 -46 -40 -65 6
-17 43 -20 79 -6 32 12 41 4 59 -49 12 -38 19 -45 48 -51 18 -4 36 -13 40 -19
15 -25 38 -1 59 62 28 83 44 110 253 421 97 145 199 305 227 356 27 50 61 105
74 121 33 38 91 140 84 146 -3 3 -12 -5 -21 -18z"/>
<path d="M14215 17040 c-50 -25 -140 -99 -139 -114 1 -6 3 -18 5 -26 3 -11 -9
-17 -46 -23 -55 -10 -98 -29 -133 -60 -18 -16 -21 -27 -16 -53 5 -27 2 -35
-18 -47 -12 -8 -38 -18 -56 -22 -39 -8 -96 -39 -141 -78 -32 -26 -33 -29 -20
-59 11 -27 10 -32 -6 -44 -10 -8 -37 -14 -58 -14 -25 0 -67 -13 -112 -35 -71
-34 -72 -35 -71 -71 1 -43 -7 -49 -86 -64 -31 -6 -72 -21 -90 -34 -28 -18 -33
-28 -33 -61 0 -37 -2 -40 -35 -45 -44 -8 -154 -77 -171 -108 -11 -19 -11 -25
0 -32 23 -14 5 -35 -40 -50 -105 -33 -152 -78 -114 -110 8 -7 15 -19 15 -26 0
-8 5 -14 12 -14 10 0 97 84 143 141 33 39 379 305 520 399 44 29 98 67 120 84
22 17 53 38 70 46 16 8 68 51 115 95 47 45 106 95 131 112 25 18 69 57 98 89
28 31 78 73 109 94 130 83 168 191 47 130z"/>
<path d="M23455 16767 c-32 -28 -86 -77 -120 -107 -57 -52 -383 -300 -507
-386 -32 -21 -117 -82 -190 -134 -73 -52 -171 -120 -218 -151 -47 -31 -104
-71 -126 -90 -23 -19 -94 -72 -159 -119 -64 -47 -156 -113 -204 -148 -47 -35
-103 -75 -124 -90 -21 -15 -80 -58 -132 -97 -51 -38 -137 -101 -190 -140 -52
-38 -142 -106 -199 -150 -57 -44 -134 -102 -172 -130 -184 -133 -485 -372
-742 -589 -64 -54 -146 -119 -182 -144 -36 -26 -96 -74 -135 -108 -38 -34
-127 -109 -196 -166 -105 -85 -231 -193 -443 -378 -16 -14 -36 -32 -45 -41 -9
-8 -32 -26 -51 -39 -19 -13 -63 -47 -97 -75 -115 -92 -330 -248 -538 -390
-130 -88 -190 -131 -275 -196 -41 -31 -118 -86 -170 -121 -243 -165 -300 -205
-389 -277 -124 -99 -248 -191 -259 -191 -5 0 -17 -10 -28 -22 -10 -11 -37 -33
-60 -47 -22 -15 -60 -43 -85 -63 -68 -57 -158 -125 -219 -165 -67 -44 -154
-110 -235 -178 -62 -53 -165 -132 -288 -223 -40 -30 -108 -84 -152 -120 -44
-37 -100 -80 -125 -96 -25 -16 -76 -54 -115 -85 -38 -31 -128 -99 -200 -151
-71 -52 -140 -104 -153 -116 -12 -12 -41 -34 -65 -50 -23 -15 -58 -42 -77 -60
-19 -17 -45 -35 -57 -39 -13 -3 -23 -10 -23 -14 0 -5 -37 -34 -82 -66 -46 -31
-102 -71 -125 -88 -23 -18 -73 -54 -110 -81 -37 -27 -88 -66 -113 -86 -25 -20
-115 -83 -200 -140 -85 -56 -157 -106 -160 -110 -9 -12 -225 -157 -260 -175
-19 -10 -42 -24 -50 -31 -27 -26 -114 -82 -175 -115 -33 -17 -76 -44 -95 -59
-74 -58 -373 -259 -445 -301 -34 -19 -92 -55 -130 -82 -116 -79 -202 -134
-273 -173 -37 -20 -83 -50 -103 -66 -20 -15 -40 -28 -43 -28 -4 0 -28 -15 -55
-32 -27 -18 -79 -51 -115 -73 -37 -22 -92 -58 -124 -81 -31 -22 -84 -56 -117
-75 -33 -18 -67 -38 -76 -44 -28 -17 -161 -94 -244 -142 -44 -25 -96 -54 -115
-65 -19 -11 -75 -43 -125 -71 -49 -27 -106 -60 -125 -73 -19 -13 -40 -24 -46
-24 -6 0 -21 -11 -33 -24 -13 -14 -37 -30 -54 -37 -18 -7 -43 -20 -57 -30 -14
-9 -61 -36 -105 -59 -44 -24 -102 -59 -130 -80 -27 -21 -70 -47 -95 -58 -25
-12 -79 -42 -120 -67 -41 -25 -94 -54 -116 -64 -23 -11 -45 -24 -48 -30 -4 -6
-28 -21 -54 -34 -57 -30 -80 -43 -155 -87 -32 -19 -66 -39 -75 -45 -10 -5 -52
-31 -94 -57 -42 -27 -79 -48 -83 -48 -4 0 -21 -10 -38 -22 -18 -13 -48 -31
-67 -42 -19 -10 -37 -21 -40 -25 -3 -3 -34 -21 -70 -38 -79 -40 -124 -66 -146
-84 -9 -7 -23 -14 -32 -16 -9 -1 -21 -8 -27 -15 -22 -30 -89 -72 -220 -138
-33 -17 -69 -35 -80 -42 -31 -17 -47 -26 -85 -45 -19 -9 -58 -32 -87 -50 -29
-18 -61 -33 -72 -33 -11 0 -23 -5 -26 -10 -4 -6 -30 -22 -58 -37 -29 -14 -66
-36 -83 -49 -17 -13 -36 -24 -43 -24 -15 0 -49 -19 -81 -46 -34 -28 -125 -84
-137 -84 -5 0 -33 -11 -61 -25 -29 -14 -56 -25 -62 -25 -5 0 -25 -14 -45 -31
-19 -17 -41 -29 -49 -26 -8 3 -20 -1 -26 -9 -7 -8 -17 -14 -22 -14 -5 0 -14
-4 -21 -10 -69 -56 -142 -100 -432 -256 -38 -20 -83 -45 -100 -55 -16 -10 -46
-27 -65 -38 -19 -10 -60 -32 -90 -49 -57 -31 -146 -76 -239 -120 -30 -14 -73
-37 -95 -52 -23 -15 -75 -45 -117 -67 -42 -22 -90 -50 -107 -62 -17 -11 -36
-21 -44 -21 -8 0 -29 -13 -48 -30 -19 -16 -41 -29 -48 -30 -7 0 -33 -14 -58
-31 -24 -16 -59 -37 -77 -45 -17 -8 -39 -19 -47 -24 -8 -5 -46 -25 -85 -44
-141 -69 -220 -110 -225 -116 -3 -3 -41 -23 -85 -44 -44 -21 -93 -49 -108 -62
-16 -13 -41 -27 -55 -31 -31 -7 -158 -72 -199 -101 -16 -11 -62 -35 -103 -55
-41 -19 -90 -47 -109 -61 -19 -14 -40 -26 -47 -26 -7 0 -19 -6 -26 -13 -19
-19 -124 -79 -278 -159 -52 -28 -102 -56 -110 -63 -8 -7 -30 -17 -49 -24 -19
-6 -42 -17 -50 -25 -26 -23 -85 -53 -118 -60 -19 -5 -33 -15 -36 -27 -4 -16
-11 -19 -26 -14 -14 4 -23 1 -27 -9 -3 -8 -15 -18 -26 -22 -24 -7 -103 -54
-180 -106 -31 -21 -62 -38 -69 -38 -19 0 -96 -48 -102 -64 -3 -8 -21 -17 -39
-21 -18 -4 -40 -16 -49 -26 -9 -10 -26 -20 -38 -22 -12 -2 -36 -15 -53 -30
-16 -15 -41 -30 -54 -33 -13 -3 -28 -12 -35 -20 -6 -8 -17 -14 -23 -14 -6 0
-33 -18 -60 -40 -26 -22 -55 -40 -64 -40 -8 0 -23 -6 -31 -14 -9 -8 -44 -28
-78 -46 -35 -17 -63 -35 -63 -41 0 -5 -8 -9 -19 -9 -10 0 -25 -7 -32 -16 -25
-30 -91 -66 -101 -56 -6 6 7 23 39 46 26 20 57 43 68 52 11 8 72 54 135 101
108 81 169 125 300 216 30 21 96 67 145 102 141 102 719 491 836 563 74 46
617 389 1009 637 76 48 243 152 298 185 120 72 242 153 242 162 0 4 6 8 14 8
8 0 39 14 68 32 29 17 63 38 76 45 27 17 29 33 2 33 -11 0 -20 -4 -20 -9 0 -4
-22 -20 -50 -34 -27 -14 -50 -22 -50 -17 0 9 -15 7 -43 -5 -13 -5 -15 -11 -7
-20 13 -16 -27 -25 -58 -14 -14 5 -22 4 -22 -2 0 -14 -68 -41 -88 -35 -14 5
-218 9 -289 7 -13 -1 -22 -7 -20 -14 2 -14 -46 -11 -51 4 -2 5 -12 9 -23 9
-15 0 -19 -7 -19 -37 0 -28 -3 -34 -10 -23 -6 10 -10 11 -10 3 0 -7 -7 -13
-15 -13 -8 0 -15 5 -15 10 0 6 -7 10 -15 10 -18 0 -20 16 -2 23 6 3 -10 4 -38
3 -37 -1 -50 -5 -50 -16 0 -11 -10 -14 -41 -12 -30 2 -43 -1 -47 -12 -4 -9
-18 -16 -32 -16 -14 0 -25 -4 -25 -10 0 -6 -58 -10 -155 -10 -97 0 -155 -4
-155 -10 0 -6 -58 -10 -152 -10 -100 0 -175 -5 -216 -15 -34 -8 -98 -15 -142
-16 -58 -1 -80 -5 -80 -14 0 -7 -7 -16 -16 -19 -8 -3 -12 -2 -9 4 8 13 -84 5
-98 -9 -16 -16 -47 -13 -47 4 0 17 -17 20 -22 4 -2 -5 -24 -13 -48 -16 -25 -3
-49 -9 -55 -13 -5 -4 -35 -8 -65 -9 -30 -2 -56 -7 -58 -12 -2 -5 -12 -9 -22
-9 -10 0 -32 -13 -48 -30 -32 -32 -72 -40 -72 -15 0 8 -7 15 -16 15 -8 0 -13
-4 -10 -9 6 -8 -87 -20 -169 -21 -16 0 -32 -5 -36 -11 -3 -6 -20 -11 -37 -11
-27 -1 -32 -5 -32 -25 0 -16 -6 -23 -20 -23 -11 0 -20 4 -20 9 0 5 -11 4 -25
-2 -14 -7 -25 -15 -25 -19 0 -5 -11 -8 -24 -8 -15 0 -26 -7 -29 -20 -4 -16 -9
-18 -36 -10 -24 7 -31 6 -31 -6 0 -8 -10 -14 -24 -14 -13 0 -27 -6 -29 -12 -4
-10 -6 -10 -6 0 -1 10 -6 9 -23 -2 -13 -8 -42 -17 -65 -21 -24 -4 -47 -14 -52
-22 -5 -9 -20 -17 -33 -17 -30 -2 -108 -36 -108 -47 0 -5 -7 -6 -15 -3 -9 4
-15 0 -15 -7 0 -11 -2 -11 -8 -1 -8 12 -53 7 -121 -14 -19 -6 -22 -4 -16 7 6
11 5 12 -6 2 -7 -7 -28 -13 -47 -13 -23 0 -31 -4 -26 -12 5 -8 2 -9 -9 -5 -11
4 -25 -2 -38 -16 -12 -12 -18 -16 -14 -8 6 10 4 12 -6 5 -23 -14 -40 -13 -45
1 -8 21 -33 6 -27 -16 7 -26 -20 -35 -48 -15 -21 14 -24 14 -36 -4 -10 -13
-26 -20 -49 -20 -19 0 -34 -4 -34 -9 0 -10 -69 -25 -77 -17 -8 8 18 37 27 31
5 -3 12 0 15 5 4 7 19 8 36 5 23 -5 30 -3 36 12 3 10 12 22 20 26 7 4 13 14
13 21 0 27 62 76 97 76 27 0 47 14 115 75 45 41 91 75 101 75 30 0 78 29 133
82 29 27 58 48 66 47 29 -4 41 4 117 71 50 44 88 70 103 70 26 0 45 12 132 82
33 26 70 48 81 48 24 0 87 42 151 101 23 20 58 42 78 47 34 10 153 93 169 119
4 7 20 13 35 13 35 0 74 24 149 94 33 31 69 56 80 56 26 0 130 68 178 116 21
21 47 40 57 41 33 5 74 31 131 83 30 27 64 50 75 50 23 0 205 147 197 160 -18
28 -143 3 -208 -42 -26 -19 -27 -23 -21 -65 l7 -46 -46 7 c-37 6 -54 3 -84
-13 -21 -12 -55 -27 -75 -35 -36 -14 -49 -38 -28 -51 6 -3 10 -14 10 -23 0
-13 -18 -21 -78 -33 -138 -29 -187 -59 -161 -100 19 -30 10 -41 -20 -23 -26
16 -32 16 -53 3 -13 -9 -43 -23 -68 -32 -74 -29 -122 -82 -90 -102 22 -14 8
-22 -41 -23 -65 -1 -145 -28 -164 -54 -8 -12 -12 -25 -10 -28 8 -13 -21 -30
-77 -45 -30 -7 -74 -24 -99 -37 -44 -24 -51 -40 -34 -81 6 -14 2 -17 -18 -17
-14 0 -63 -12 -109 -26 -83 -26 -127 -58 -128 -95 0 -10 -21 -21 -69 -33 -86
-22 -135 -51 -128 -74 13 -48 14 -47 -48 -52 -63 -5 -153 -42 -162 -67 -3 -7
2 -22 12 -33 26 -29 10 -41 -43 -34 -31 4 -62 1 -92 -10 -25 -9 -49 -16 -54
-16 -14 0 24 38 60 60 17 11 35 32 38 45 6 22 12 25 49 25 37 0 51 8 119 65
50 42 86 65 102 65 26 0 121 70 164 122 16 19 33 28 53 28 35 0 125 63 159
110 15 22 29 30 51 30 21 0 53 18 109 60 43 33 94 66 112 72 18 6 61 30 95 54
34 24 73 48 88 54 36 14 109 64 176 122 39 33 66 48 85 48 20 0 52 19 104 61
41 34 91 68 110 76 36 16 136 90 160 118 8 9 41 30 75 46 35 16 82 51 114 83
l54 55 -27 10 c-37 15 -137 -31 -191 -87 -22 -23 -46 -42 -53 -42 -7 0 -35
-16 -62 -35 -27 -19 -54 -35 -59 -35 -5 0 -31 -17 -58 -39 -27 -21 -65 -47
-84 -56 -72 -37 -119 -76 -119 -98 0 -40 -12 -48 -48 -35 -27 11 -35 10 -59
-8 -15 -12 -43 -29 -61 -38 -19 -10 -59 -37 -90 -61 -32 -24 -68 -46 -82 -50
-14 -4 -56 -28 -95 -53 -38 -26 -94 -58 -125 -73 -30 -14 -83 -47 -118 -73
-35 -26 -95 -62 -134 -81 -40 -20 -79 -41 -87 -49 -9 -7 -23 -16 -33 -19 -9
-3 -67 -39 -130 -79 -133 -87 -197 -126 -247 -151 -20 -11 -45 -27 -56 -36
-11 -10 -49 -35 -85 -56 -36 -21 -87 -56 -114 -77 -27 -21 -53 -38 -58 -38 -5
0 -33 -15 -61 -33 -29 -19 -70 -44 -92 -57 -118 -69 -335 -208 -375 -239 -25
-20 -85 -61 -133 -91 -49 -30 -125 -81 -170 -114 -191 -136 -367 -250 -374
-242 -5 5 87 96 97 96 4 0 20 12 36 26 16 14 45 36 64 48 37 25 198 161 215
182 6 7 23 18 40 24 l30 11 -25 19 -25 19 44 -1 c39 0 48 4 73 33 15 19 28 37
28 42 0 4 -16 7 -35 7 -26 0 -33 3 -29 15 4 8 12 15 20 15 8 0 14 4 14 9 0 5
16 30 35 55 19 25 30 46 25 46 -5 0 -15 -9 -22 -20 -7 -11 -16 -20 -21 -20 -4
0 -44 -38 -90 -83 -45 -46 -89 -88 -99 -93 -30 -16 -371 -358 -496 -498 -68
-75 -160 -167 -205 -204 -122 -101 -244 -220 -277 -272 -32 -50 -37 -81 -19
-127 8 -20 7 -44 -2 -87 -12 -59 -12 -73 22 -326 16 -116 67 -324 106 -430
103 -280 203 -462 375 -676 83 -105 105 -139 100 -154 -4 -11 -40 -54 -81 -96
-44 -46 -83 -97 -98 -131 -23 -50 -25 -64 -21 -151 5 -105 30 -194 74 -264
l26 -41 58 6 c33 4 61 3 64 -2 3 -4 -6 -19 -19 -31 -14 -14 -25 -35 -25 -49 1
-42 37 -110 63 -120 13 -5 27 -17 31 -27 4 -10 47 -79 96 -154 65 -98 90 -145
90 -167 0 -52 105 -230 169 -287 11 -11 21 -28 21 -38 0 -11 15 -27 35 -39 19
-12 35 -26 35 -32 0 -16 140 -147 157 -147 8 0 27 -8 41 -18 15 -10 54 -24 87
-31 33 -7 70 -17 83 -22 13 -5 36 -9 51 -9 16 0 40 -9 54 -20 14 -11 40 -20
59 -20 19 0 43 -7 54 -15 10 -8 35 -15 54 -15 19 0 43 -7 53 -15 12 -8 31 -11
53 -8 20 3 40 1 49 -7 15 -13 30 -14 220 -25 126 -8 115 -8 220 -1 76 5 102 7
223 20 28 3 61 10 72 16 11 6 30 8 42 5 13 -3 40 1 60 10 21 8 51 15 68 15 17
0 41 5 53 11 12 7 34 12 51 11 16 0 42 6 57 14 15 8 41 14 57 14 16 0 43 7 60
16 18 8 41 13 51 9 11 -3 34 1 50 9 17 9 45 16 63 16 18 1 44 7 58 15 14 8 41
14 60 15 19 0 48 9 65 20 16 11 50 22 75 26 25 3 75 19 112 35 36 16 73 29 81
29 8 0 34 13 58 30 24 16 53 30 64 30 11 0 40 10 64 21 25 11 65 24 90 30 24
5 70 25 100 44 35 22 69 35 89 35 18 0 42 5 52 10 11 6 43 15 72 20 28 6 61
19 73 30 16 15 35 20 82 20 73 0 187 48 247 105 37 34 42 36 86 30 41 -6 58
-2 121 28 41 18 86 46 101 62 22 22 40 29 95 35 50 5 81 15 117 39 32 20 63
31 85 31 27 0 55 13 109 50 56 38 82 50 111 50 25 0 50 9 72 25 74 54 95 65
139 71 48 7 144 56 205 104 21 17 56 35 79 40 62 15 313 146 380 198 56 43
112 71 147 72 9 0 28 9 42 20 14 12 59 34 99 51 40 16 87 43 104 60 17 17 52
36 78 44 26 8 59 23 74 33 15 11 37 23 50 26 12 4 56 30 96 57 41 27 93 56
116 64 23 8 92 48 154 89 62 40 146 88 186 106 41 18 97 47 125 65 140 89 182
115 208 124 64 25 458 273 517 327 19 17 78 52 131 78 52 25 125 67 161 93
148 107 247 187 259 210 16 29 58 53 92 53 14 0 47 15 73 33 97 65 331 231
407 289 43 32 91 65 105 72 15 8 38 26 52 41 14 15 49 38 77 51 84 38 300 187
434 300 47 40 101 79 120 87 19 7 64 36 100 63 37 27 113 83 170 124 57 41
127 95 154 121 28 25 61 52 75 59 35 18 296 201 368 258 33 26 102 81 153 123
52 42 119 94 150 115 105 72 213 157 406 318 178 149 229 190 356 286 122 92
399 313 423 338 15 15 32 43 38 62 10 31 16 35 67 45 57 12 95 33 159 89 19
17 70 57 112 89 43 32 110 89 150 126 40 38 89 76 108 86 51 26 456 350 644
515 28 25 87 72 131 105 102 77 292 235 392 328 43 40 92 83 108 96 17 12 76
67 132 122 55 54 105 99 110 99 5 0 30 18 54 41 24 23 64 57 89 77 25 20 52
44 60 53 27 30 283 242 420 348 359 278 733 585 1105 909 96 84 202 174 591
503 238 202 519 431 894 733 41 33 102 83 135 111 33 28 89 73 125 100 36 27
111 90 168 140 126 109 170 145 258 209 132 97 330 260 414 341 47 45 112 99
145 120 105 67 376 287 486 394 59 57 120 110 137 117 74 31 345 237 499 380
57 53 143 122 193 155 104 68 230 167 380 298 58 51 139 115 180 143 73 50
511 377 640 478 36 28 90 67 120 87 299 196 430 292 488 358 39 44 50 65 36
65 -6 0 -100 -55 -169 -99 -74 -47 -150 -81 -182 -81 -24 0 -35 7 -51 33 -12
17 -34 50 -51 72 -16 22 -44 65 -62 95 -40 69 -87 120 -111 120 -26 0 -22 -26
13 -88 68 -121 109 -230 109 -291 0 -65 -7 -75 -81 -115 -98 -52 -121 -65
-135 -76 -8 -7 -32 -22 -53 -34 -22 -11 -53 -33 -70 -48 -16 -15 -46 -34 -66
-42 -19 -8 -38 -22 -41 -31 -3 -8 -15 -15 -25 -15 -10 0 -19 -5 -19 -11 0 -5
-22 -19 -49 -31 -28 -11 -51 -28 -54 -38 -5 -20 -16 -22 -141 -20 -74 1 -106
12 -106 36 0 9 -22 41 -48 72 -27 31 -56 69 -65 85 -20 32 -56 36 -80 9 -31
-34 -27 -44 71 -195 70 -109 90 -163 83 -222 -5 -45 -9 -50 -33 -53 -16 -2
-28 1 -28 7 0 20 -22 11 -59 -22 -21 -19 -56 -42 -79 -53 -23 -10 -42 -25 -42
-32 0 -29 -48 -62 -89 -62 -31 0 -41 -4 -46 -20 -3 -11 -18 -23 -33 -27 -15
-3 -33 -12 -40 -20 -19 -18 -43 -16 -48 5 -3 9 -18 25 -35 34 -20 12 -29 25
-29 42 0 15 -8 30 -21 36 -11 7 -27 27 -35 46 -15 35 -42 49 -84 42 -37 -5
-48 -32 -27 -67 9 -16 17 -35 17 -42 0 -6 11 -26 24 -43 13 -17 38 -60 56 -96
28 -56 32 -71 27 -117 -7 -66 -11 -73 -49 -73 -23 0 -41 -12 -79 -50 -27 -28
-49 -54 -49 -58 0 -10 -85 -52 -106 -52 -8 0 -17 -7 -21 -15 -9 -26 -57 -44
-121 -47 -56 -2 -63 0 -100 32 -23 19 -44 46 -48 60 -3 14 -15 34 -25 45 -10
11 -27 30 -39 43 -23 26 -56 28 -88 6 -25 -17 -30 -65 -8 -83 8 -7 25 -36 39
-65 14 -30 31 -57 37 -61 20 -12 60 -104 60 -139 0 -41 -16 -55 -34 -31 -10
14 -17 16 -32 7 -18 -11 -18 -12 4 -18 24 -7 25 -23 1 -35 -8 -4 -38 -21 -67
-38 -29 -17 -61 -31 -72 -31 -22 0 -27 -15 -7 -23 17 -8 -36 -55 -70 -64 -15
-3 -47 -22 -72 -41 -72 -55 -132 -68 -156 -35 -7 9 -19 14 -29 10 -25 -10 -19
-27 9 -27 18 0 25 -5 25 -20 0 -31 -31 -41 -69 -23 -41 20 -49 40 -25 58 22
16 23 16 -34 20 -50 4 -55 7 -57 37 -1 15 -11 25 -31 31 -16 6 -33 16 -37 23
-13 23 -55 16 -89 -15 -31 -27 -32 -30 -16 -48 54 -59 168 -259 168 -294 0
-29 -39 -69 -69 -69 -15 0 -36 -9 -46 -20 -12 -13 -31 -20 -54 -20 -29 -1 -33
-3 -18 -11 28 -16 21 -39 -12 -39 -17 0 -33 -4 -36 -10 -3 -5 -16 -10 -29 -10
-12 0 -41 -18 -65 -41 -39 -38 -44 -40 -71 -29 -20 8 -34 9 -48 1 -26 -14 -64
-15 -43 -2 20 13 0 37 -44 51 -31 10 -39 22 -59 83 -3 9 -12 17 -20 17 -9 0
-20 9 -26 21 -9 16 -17 19 -38 14 -31 -8 -72 -43 -72 -61 0 -7 23 -57 51 -111
29 -54 59 -111 67 -128 15 -28 17 -54 10 -135 -3 -33 -5 -35 -35 -33 -25 2
-31 0 -27 -12 4 -9 -1 -18 -12 -22 -10 -4 -19 -2 -22 5 -2 7 -11 12 -19 12 -8
0 -13 -6 -10 -13 3 -8 -16 -24 -49 -41 -36 -19 -56 -37 -60 -52 -6 -22 -11
-24 -65 -24 -58 0 -78 -13 -39 -25 11 -3 20 -10 20 -15 0 -17 -47 -41 -86 -45
-22 -2 -51 -7 -66 -10 -18 -5 -40 -1 -62 9 -19 9 -45 16 -59 16 -30 0 -50 21
-41 44 4 11 0 16 -14 16 -40 0 -51 10 -45 41 5 25 2 29 -15 29 -12 0 -26 9
-32 20 -26 48 -130 9 -130 -49 0 -25 30 -87 70 -146 80 -118 118 -228 86 -254
-13 -11 -19 -11 -31 -1 -12 10 -20 8 -41 -9 -15 -12 -33 -21 -40 -21 -13 0
-41 -23 -96 -76 -22 -23 -31 -26 -64 -19 -33 6 -36 5 -25 -9 28 -33 10 -50
-64 -61 -61 -9 -70 -13 -73 -33 -2 -15 -18 -29 -45 -43 -23 -12 -49 -27 -57
-34 -8 -7 -38 -20 -66 -29 -46 -15 -58 -15 -120 -2 -38 7 -70 13 -72 11 -2 -2
4 -17 12 -34 9 -16 16 -38 16 -48 0 -10 7 -27 15 -37 13 -17 13 -22 -2 -38 -9
-10 -28 -18 -43 -18 -16 0 -30 -7 -34 -15 -3 -8 -11 -15 -18 -15 -7 0 -19 -9
-26 -20 -7 -11 -23 -20 -36 -20 -14 0 -28 -4 -31 -10 -3 -5 -11 -10 -16 -10
-6 0 -7 5 -4 10 3 6 -3 10 -14 10 -14 0 -21 -6 -21 -19 0 -23 -42 -55 -85 -65
-36 -9 -65 -33 -59 -50 3 -8 -8 -12 -31 -13 -21 -1 -52 -12 -73 -26 -20 -14
-47 -28 -59 -31 -11 -4 -27 -13 -33 -21 -14 -17 -70 -21 -70 -5 0 5 -20 21
-45 36 -25 14 -45 32 -45 39 0 7 -13 15 -30 18 -27 6 -29 9 -20 31 8 23 7 25
-23 28 -28 3 -32 7 -32 33 0 28 -2 30 -38 29 -27 -1 -47 -10 -68 -30 -16 -15
-29 -33 -29 -39 0 -5 27 -57 61 -115 74 -128 111 -209 102 -223 -4 -6 -6 -26
-5 -43 3 -39 -13 -52 -37 -30 -24 22 -34 20 -61 -9 -12 -13 -39 -30 -59 -36
-62 -20 -120 -59 -123 -82 -2 -17 -9 -21 -30 -19 -27 3 -114 -38 -164 -77 -15
-12 -36 -21 -46 -21 -11 0 -34 -10 -50 -22 l-30 -21 22 -12 c20 -11 21 -13 5
-19 -10 -3 -23 -2 -30 4 -7 6 -30 8 -53 4 -40 -6 -41 -7 -26 -29 14 -22 14
-24 -6 -35 -12 -6 -31 -11 -43 -10 -36 3 -40 1 -27 -15 10 -12 7 -15 -17 -20
-15 -3 -41 -12 -56 -20 -16 -8 -33 -13 -38 -9 -5 3 -9 0 -9 -5 0 -6 -11 -11
-24 -11 -13 0 -29 -7 -36 -15 -7 -8 -21 -15 -32 -15 -11 0 -29 -5 -40 -11 -30
-16 -49 6 -22 26 18 14 17 14 -13 15 -17 0 -35 4 -38 10 -3 5 -25 7 -50 3 -39
-5 -45 -3 -45 12 0 10 8 23 17 30 16 12 16 14 0 29 -9 10 -17 22 -17 27 0 5
-9 9 -21 9 -13 0 -23 8 -26 21 -13 49 -140 -2 -156 -61 -3 -10 4 -33 16 -52
39 -65 84 -154 91 -181 9 -38 -3 -97 -20 -97 -29 0 -62 23 -57 38 4 10 2 13
-5 8 -7 -4 -12 -16 -12 -27 0 -10 -7 -19 -15 -19 -8 0 -15 5 -15 10 0 16 -27
12 -34 -5 -3 -8 -16 -15 -29 -15 -14 0 -30 -7 -37 -15 -16 -19 -39 -19 -46 0
-4 8 -14 15 -23 15 -14 -1 -14 -2 2 -15 26 -19 18 -49 -15 -53 -14 -2 -34 -12
-44 -23 -9 -10 -28 -19 -41 -19 -12 0 -32 -9 -44 -21 -24 -24 -65 -22 -61 4 2
12 -4 17 -22 17 -14 0 -28 -5 -31 -10 -8 -12 -102 -13 -109 -1 -3 5 6 16 19
25 29 19 25 36 -10 36 -28 0 -75 20 -75 31 0 4 5 11 10 14 6 3 10 11 10 17 0
16 -137 2 -166 -17 -36 -23 -30 -59 21 -134 43 -64 85 -161 85 -199 0 -27 -20
-42 -50 -36 -17 4 -31 0 -39 -10 -8 -9 -19 -16 -26 -16 -7 0 -24 -10 -39 -21
-23 -18 -31 -20 -52 -10 -34 15 -34 15 -34 -19 0 -38 -23 -49 -50 -25 -16 14
-23 15 -34 6 -8 -7 -12 -19 -9 -27 3 -8 -3 -17 -13 -20 -11 -4 -27 -14 -37
-22 -10 -9 -34 -15 -60 -14 -23 1 -49 -3 -57 -8 -13 -9 -13 -12 3 -24 30 -23
21 -39 -20 -33 -23 4 -43 2 -53 -6 -8 -7 -33 -19 -55 -26 -22 -7 -47 -20 -56
-27 -9 -8 -23 -12 -32 -8 -21 8 -12 24 12 24 29 0 45 25 26 40 -13 11 -23 11
-56 0 -48 -16 -68 -5 -50 29 10 19 9 22 -14 31 -15 6 -33 10 -41 10 -12 0 -12
4 -2 20 18 28 4 35 -65 35 -52 0 -69 -5 -107 -30 -52 -35 -60 -58 -32 -88 43
-49 142 -247 142 -286 0 -27 -3 -29 -51 -35 -28 -4 -84 -23 -125 -42 -59 -27
-82 -33 -109 -28 -33 6 -35 4 -35 -20 0 -27 -25 -37 -33 -13 -2 6 -2 -1 1 -16
4 -26 1 -29 -25 -27 -43 3 -73 -10 -73 -31 0 -14 -7 -19 -28 -19 -15 0 -32 4
-37 9 -15 13 -63 22 -69 12 -10 -16 23 -34 50 -27 18 5 25 3 22 -6 -8 -23 -56
-28 -82 -7 -17 14 -33 18 -51 13 -14 -3 -31 -2 -38 4 -6 6 -23 12 -37 14 -20
2 -25 9 -25 33 -1 27 -5 30 -38 36 -20 3 -40 9 -44 13 -10 9 36 44 62 48 11 2
21 12 23 22 4 17 0 18 -49 12 -30 -4 -85 -18 -124 -32 -105 -37 -105 -37 -105
-26 0 11 145 97 309 183 30 16 61 35 70 43 9 7 26 17 39 21 12 3 46 22 75 41
28 19 55 34 60 34 5 0 21 8 35 19 15 10 79 45 142 78 63 32 149 82 190 109 41
28 144 90 229 138 84 48 179 104 210 124 31 20 117 67 191 105 139 71 218 116
306 174 28 18 55 33 61 33 5 0 18 9 28 20 10 11 26 20 35 20 10 0 23 7 30 15
18 22 305 159 398 189 29 10 74 33 100 51 26 19 92 62 147 96 55 35 128 84
162 109 34 25 99 68 144 95 99 60 264 169 339 224 30 22 89 63 130 92 41 28
79 58 83 65 4 8 25 23 46 33 20 11 44 27 51 36 8 9 34 28 59 41 122 65 150 82
197 119 28 22 70 51 93 65 23 14 63 41 89 61 26 20 90 60 142 89 109 60 167
102 265 194 39 36 76 66 84 66 8 0 25 -10 38 -22 20 -18 27 -20 41 -10 9 6 31
19 47 28 17 9 44 29 60 44 17 15 64 51 105 79 157 108 206 144 247 180 64 56
137 111 268 201 66 46 146 102 179 124 32 23 66 46 75 51 29 19 95 65 136 96
22 16 51 37 65 47 39 26 133 99 155 120 44 42 136 112 240 184 108 74 254 181
325 236 19 16 51 39 70 52 19 13 103 74 185 135 83 62 195 145 250 185 55 40
138 105 185 145 47 39 130 107 185 150 55 44 151 122 213 175 150 125 188 156
306 242 119 87 267 213 471 399 169 154 213 192 434 371 215 176 351 278 521
393 80 54 175 123 212 154 67 56 84 80 31 43 -15 -11 -49 -32 -75 -48 -85 -53
-312 -206 -355 -240 -23 -19 -45 -34 -50 -34 -4 0 -53 -34 -108 -75 -55 -41
-105 -75 -111 -75 -10 0 -110 -72 -144 -104 -8 -7 -31 -21 -50 -31 -19 -10
-44 -26 -55 -36 -74 -66 -191 -160 -239 -194 -32 -22 -76 -56 -98 -76 -35 -33
-77 -56 -132 -73 -15 -5 -16 -9 -5 -22 17 -21 -7 -37 -33 -23 -10 6 -28 7 -39
4 -16 -5 -19 -14 -17 -43 3 -32 0 -37 -19 -40 -13 -2 -23 1 -23 7 0 6 -7 11
-15 11 -18 0 -19 -12 -3 -28 17 -17 -29 -62 -92 -92 -28 -13 -50 -27 -50 -31
0 -5 -15 -16 -32 -25 -61 -31 -158 -99 -163 -114 -3 -8 -21 -26 -41 -40 l-36
-24 -18 22 c-10 12 -23 22 -29 22 -19 0 -12 -27 11 -42 l23 -15 -34 -29 c-49
-42 -59 -46 -80 -34 -31 16 -66 12 -86 -10 -18 -20 -8 -29 11 -10 21 21 64
-16 48 -41 -10 -16 -65 -41 -80 -35 -8 3 -14 15 -14 26 0 11 -7 20 -15 20 -8
0 -15 -9 -15 -20 0 -11 5 -20 10 -20 23 0 9 -46 -19 -63 -36 -21 -51 -22 -51
-2 0 19 -15 19 -32 0 -32 -35 -38 -45 -36 -57 2 -8 -10 -11 -40 -9 -37 2 -44
0 -49 -19 -3 -12 -16 -26 -29 -31 -32 -12 -30 -29 3 -29 26 0 26 -1 10 -17
-14 -15 -21 -15 -37 -5 -27 16 -93 16 -88 0 3 -7 17 -19 31 -26 15 -7 27 -17
27 -21 0 -15 -28 -33 -47 -30 -10 2 -29 -1 -42 -5 -14 -5 -27 -4 -34 3 -28 28
-37 -1 -9 -32 16 -18 16 -20 -17 -48 -19 -15 -46 -29 -60 -31 -18 -2 -27 -10
-29 -25 -3 -19 -10 -23 -43 -23 -32 0 -41 -5 -50 -24 -7 -14 -22 -27 -36 -31
-19 -4 -23 -10 -18 -26 6 -18 4 -20 -28 -14 -21 4 -37 3 -41 -4 -4 -6 -16 -11
-28 -11 -17 0 -19 -4 -14 -25 5 -20 3 -25 -13 -25 -10 0 -21 -7 -25 -15 -3
-10 1 -15 11 -15 13 0 14 -3 5 -12 -9 -9 -15 -9 -24 0 -21 21 -39 14 -36 -14
4 -37 -40 -71 -71 -55 -11 7 -21 18 -21 26 0 8 -4 15 -8 15 -19 0 -20 -14 -1
-46 23 -42 12 -74 -26 -74 -29 0 -31 7 -10 30 14 16 14 18 0 24 -9 3 -18 0
-21 -8 -3 -8 -24 -22 -45 -30 -45 -18 -51 -49 -11 -54 12 -2 22 -7 22 -11 0
-17 -31 -33 -55 -29 -15 3 -25 1 -25 -7 0 -30 -110 -97 -154 -93 -29 3 -31 1
-29 -27 2 -23 -5 -36 -29 -55 -17 -13 -41 -23 -54 -22 -13 1 -26 -3 -29 -8 -3
-6 -17 -10 -30 -10 -30 0 -39 -14 -20 -30 23 -19 18 -39 -11 -46 -19 -5 -29
-2 -35 9 -9 14 -12 14 -39 -1 -44 -25 -33 -44 14 -26 18 7 18 6 1 -20 -10 -14
-29 -29 -44 -32 -14 -4 -33 -12 -41 -19 -8 -7 -25 -16 -37 -19 -13 -4 -23 -15
-23 -26 0 -10 -12 -26 -27 -35 -16 -10 -22 -12 -15 -4 21 22 14 30 -22 24 -19
-4 -43 -2 -55 4 -28 15 -27 5 4 -35 l26 -33 -42 -27 c-35 -22 -49 -25 -84 -19
-44 6 -72 -8 -35 -18 11 -3 20 -10 20 -17 0 -18 -48 -58 -99 -80 -73 -34 -76
-36 -76 -60 0 -19 -12 -28 -60 -49 -34 -14 -74 -36 -89 -48 -16 -13 -39 -23
-52 -23 -12 0 -35 -10 -50 -23 -26 -23 -26 -24 -10 -49 19 -30 20 -29 -57 -65
-26 -12 -50 -29 -53 -36 -3 -8 -23 -20 -44 -27 -30 -10 -39 -18 -37 -33 1 -14
-6 -22 -23 -27 -14 -4 -43 -19 -64 -34 -42 -28 -96 -35 -96 -13 0 19 30 44 63
52 15 4 27 13 27 21 0 7 11 16 25 20 24 6 35 24 15 24 -17 0 -65 -27 -79 -44
-7 -8 -29 -20 -49 -26 -71 -22 -227 -105 -251 -133 -26 -31 -163 -133 -211
-157 -16 -8 -32 -23 -35 -32 -3 -9 -16 -20 -28 -24 -12 -3 -38 -18 -57 -33
-19 -15 -57 -41 -85 -57 -27 -15 -72 -46 -100 -66 -27 -21 -74 -50 -102 -64
-29 -13 -53 -29 -53 -35 0 -15 -42 -48 -60 -49 -9 0 -27 -12 -41 -27 -29 -32
-59 -54 -225 -164 -154 -103 -182 -122 -259 -175 -44 -31 -87 -62 -95 -69 -8
-7 -73 -46 -145 -86 -71 -40 -142 -85 -157 -101 -14 -15 -32 -28 -40 -28 -7
-1 -31 -10 -53 -21 -27 -13 -32 -18 -15 -15 14 3 31 1 39 -3 19 -12 6 -41 -17
-41 -10 0 -31 -13 -47 -30 -16 -16 -38 -30 -50 -30 -13 0 -32 -13 -46 -31 -13
-17 -46 -42 -74 -54 -27 -13 -73 -37 -101 -53 -37 -22 -54 -28 -65 -20 -8 5
-10 11 -4 14 6 2 26 14 45 26 l35 23 -33 3 c-19 2 -41 0 -50 -4 -10 -4 -29 -6
-44 -5 -36 3 -37 -19 -3 -50 13 -13 25 -27 25 -30 0 -14 -70 -39 -94 -33 -18
4 -30 0 -43 -15 -9 -12 -28 -21 -40 -21 -14 0 -23 -6 -23 -15 0 -19 -52 -52
-105 -66 -22 -6 -48 -17 -58 -24 -14 -10 -25 -10 -47 -2 -26 10 -32 8 -44 -8
-13 -18 -13 -20 5 -23 28 -5 19 -22 -21 -43 -18 -10 -38 -23 -44 -29 -13 -13
-56 -13 -56 -1 0 5 7 17 16 25 14 15 13 16 -10 16 -13 0 -32 -8 -41 -17 -16
-16 -16 -17 4 -25 11 -4 21 -12 21 -17 0 -14 -41 -41 -64 -41 -11 0 -28 -7
-38 -17 -20 -18 -25 -4 -6 15 18 18 1 27 -29 16 -34 -12 -40 -32 -13 -42 22
-8 22 -9 4 -26 -15 -15 -29 -17 -76 -13 -65 6 -83 -6 -50 -34 22 -17 31 -46
12 -34 -22 14 -68 22 -80 15 -9 -6 -9 -12 -1 -29 15 -27 -7 -38 -39 -21 -26
14 -70 -1 -106 -37 -13 -13 -32 -23 -44 -23 -25 0 -37 -25 -21 -44 9 -11 6
-12 -14 -8 -14 2 -36 -3 -50 -12 -13 -9 -33 -16 -45 -16 -11 0 -20 -4 -20 -8
0 -14 -74 -39 -119 -40 -49 -1 -75 -17 -51 -32 9 -5 27 -3 49 6 34 14 60 7 47
-14 -10 -17 -75 -35 -94 -26 -27 12 -126 12 -141 0 -11 -9 -8 -12 15 -16 52
-9 41 -35 -26 -60 -33 -12 -60 -26 -60 -31 0 -4 -21 -21 -47 -36 -27 -15 -51
-31 -55 -37 -3 -5 -29 -6 -57 -3 -30 4 -51 2 -51 -3 0 -6 6 -10 14 -10 7 0 19
-7 26 -15 16 -20 0 -41 -38 -48 -15 -3 -43 -17 -62 -31 -19 -14 -51 -33 -70
-41 -19 -9 -43 -20 -52 -25 -13 -7 -21 -5 -30 8 -20 28 -43 32 -85 17 -21 -8
-50 -16 -65 -20 -55 -11 -26 -20 57 -17 47 2 85 -1 85 -6 0 -21 -39 -40 -97
-47 -50 -5 -65 -11 -78 -31 -12 -18 -24 -24 -54 -24 -22 0 -44 -6 -51 -15 -7
-8 -26 -15 -42 -15 -17 0 -27 -4 -23 -10 10 -15 55 -12 61 5 4 8 14 15 24 15
20 0 45 -26 32 -33 -19 -13 -99 -37 -119 -37 -14 0 -23 -6 -23 -15 0 -19 -16
-20 -23 -1 -3 8 -19 17 -36 21 -22 5 -31 12 -31 26 0 22 -8 23 -44 9 -14 -5
-26 -17 -26 -25 0 -13 7 -15 34 -10 29 6 35 4 41 -14 3 -11 15 -23 26 -26 16
-5 18 -10 8 -21 -15 -19 -49 -18 -49 1 0 17 -23 20 -51 5 -28 -16 -23 -30 11
-30 28 0 29 -1 18 -25 -7 -15 -20 -25 -32 -25 -12 0 -30 -7 -40 -15 -11 -8
-30 -15 -42 -15 -13 0 -26 -4 -29 -10 -3 -5 -16 -10 -28 -10 -12 0 -28 -9 -35
-20 -17 -27 -62 -27 -62 0 0 13 -7 20 -20 20 -22 0 -27 -19 -9 -37 21 -21 -1
-35 -42 -28 -45 8 -109 -16 -109 -40 0 -18 60 -21 77 -4 13 13 43 5 43 -11 0
-5 -10 -10 -23 -10 -12 0 -31 -9 -40 -21 -23 -26 -48 -21 -65 14 -14 28 -20
31 -46 21 -26 -10 -18 -31 14 -43 31 -10 40 -38 17 -47 -8 -3 -38 4 -67 16
-42 17 -55 18 -61 8 -5 -8 -3 -17 6 -24 8 -6 15 -16 15 -21 0 -6 15 -15 33
-20 l32 -10 -40 -19 c-22 -10 -58 -33 -80 -50 -23 -18 -59 -37 -80 -43 -48
-13 -144 -14 -164 -2 -24 15 56 42 130 45 43 1 75 8 92 19 15 9 33 17 41 17
23 0 29 20 12 39 -9 10 -16 25 -16 34 0 19 -35 23 -59 8 -11 -7 -8 -14 15 -35
l29 -25 -32 -1 c-17 0 -35 -5 -39 -11 -4 -7 -21 -9 -42 -5 -23 3 -42 1 -52 -8
-8 -7 -42 -22 -74 -32 -61 -18 -127 -63 -95 -64 9 0 30 -7 45 -15 34 -18 66
-19 81 -4 7 7 13 8 17 0 6 -9 -69 -51 -92 -51 -4 0 -24 14 -43 31 -36 32 -38
32 -132 8 -43 -11 -49 -11 -61 6 -7 10 -18 15 -23 12 -6 -4 -27 0 -47 8 -32
14 -35 18 -26 35 13 24 7 25 -55 9 -48 -12 -82 -39 -50 -39 10 0 26 7 35 15
18 17 53 10 47 -9 -5 -15 -64 -35 -104 -35 -21 -1 -36 -8 -42 -20 -16 -29 -63
-34 -82 -9 -14 18 -19 19 -40 7 -22 -12 -45 -16 -124 -22 -16 -1 -46 -12 -65
-25 -21 -13 -51 -22 -75 -22 -29 0 -44 -5 -52 -19 -12 -19 -32 -24 -148 -40
-70 -9 -79 -7 -65 20 9 15 22 19 63 19 29 1 63 7 77 15 14 8 33 14 42 15 9 0
34 11 54 25 26 17 50 25 81 25 27 0 51 6 60 16 9 9 26 14 40 11 13 -2 26 0 29
4 3 5 29 9 58 9 38 0 61 6 79 20 14 11 35 20 46 20 12 0 24 6 27 14 3 7 26 23
52 34 56 25 238 82 261 82 10 0 21 4 27 9 14 14 57 16 80 3 22 -12 73 -3 97
16 7 5 29 12 50 16 20 4 37 11 37 16 0 15 -44 12 -66 -5 -27 -21 -68 -18 -89
5 -24 26 -48 25 -79 -4 -26 -23 -124 -50 -150 -40 -7 3 -31 -5 -52 -18 -40
-24 -138 -50 -186 -49 -31 0 -47 -16 -24 -25 54 -21 -45 -52 -214 -68 -44 -5
-166 -39 -203 -58 -49 -25 -165 -61 -192 -59 -16 0 -52 1 -80 1 -56 -1 -117
26 -113 50 2 10 20 17 53 21 28 4 65 10 83 14 28 7 32 5 32 -13 0 -30 29 -34
90 -13 77 28 130 50 130 56 0 10 -105 -8 -125 -21 -22 -16 -85 -19 -85 -5 0
27 15 41 42 41 17 0 44 6 61 14 18 7 67 21 110 31 42 10 77 22 77 27 0 15 -86
8 -145 -12 -32 -11 -67 -20 -77 -20 -10 0 -30 -7 -43 -16 -13 -9 -28 -13 -33
-10 -13 8 -123 -33 -147 -54 -11 -10 -31 -18 -45 -18 -14 0 -53 -12 -85 -27
-51 -23 -57 -29 -39 -35 11 -5 42 -3 68 3 42 9 49 9 58 -6 5 -9 18 -17 28 -17
11 0 20 -6 20 -14 0 -20 -38 -30 -56 -16 -11 10 -24 10 -62 0 -26 -7 -51 -18
-57 -25 -17 -20 -66 -29 -142 -26 -49 2 -80 -2 -100 -12 -15 -8 -43 -21 -60
-27 -18 -7 -33 -16 -33 -21 0 -15 34 -10 75 11 22 11 48 17 61 14 13 -3 38 -1
57 5 35 12 41 10 134 -32 16 -7 31 -6 53 3 46 19 61 -1 22 -29 -17 -11 -37
-21 -45 -21 -7 0 -24 -9 -37 -20 -13 -11 -34 -20 -47 -20 -13 0 -34 -6 -46
-14 -12 -7 -44 -14 -70 -15 -26 -1 -56 -7 -67 -13 -10 -7 -23 -9 -27 -4 -9 9
34 44 62 50 100 20 124 26 149 35 24 10 26 13 15 27 -18 22 -111 14 -166 -14
-22 -12 -49 -19 -59 -17 -10 3 -48 -3 -84 -13 -53 -14 -68 -23 -78 -45 -8 -16
-21 -31 -30 -34 -10 -2 -26 -9 -37 -14 -11 -4 -33 -10 -50 -11 -23 -2 -31 -9
-33 -26 -3 -20 -8 -23 -28 -18 -13 4 -34 1 -46 -5 -21 -11 -21 -12 -3 -25 22
-16 61 -18 70 -4 3 6 22 10 42 10 20 0 44 7 53 15 27 24 85 44 100 35 22 -13
3 -27 -56 -42 -28 -7 -59 -21 -68 -31 -12 -12 -31 -17 -55 -16 -20 2 -46 -3
-58 -9 -12 -7 -29 -9 -37 -6 -9 3 -30 -3 -48 -14 -19 -12 -47 -21 -63 -20 -20
0 -54 -16 -99 -46 -38 -25 -93 -55 -123 -68 -29 -12 -53 -25 -53 -30 0 -4 12
-15 26 -24 24 -16 27 -16 63 4 40 23 77 28 99 13 9 -5 -6 -15 -45 -29 -95 -33
-103 -35 -147 -22 -40 11 -45 10 -104 -25 -34 -20 -62 -40 -62 -44 0 -15 -93
-53 -150 -61 -100 -14 -89 -4 155 131 28 15 100 60 160 101 61 40 139 89 174
108 34 19 91 55 124 80 34 25 130 90 212 145 83 54 168 113 190 130 44 35 262
182 310 209 192 109 309 181 445 272 42 29 108 68 146 87 38 19 96 53 129 76
33 23 65 41 71 41 6 0 17 7 24 15 19 23 235 168 365 245 39 23 91 56 117 73
26 18 68 46 93 62 26 17 59 38 74 48 14 9 35 20 46 24 37 12 190 96 225 123
19 15 74 47 121 72 90 47 125 70 369 235 146 99 199 137 300 217 30 24 102 76
160 115 91 62 189 131 306 214 65 46 220 164 235 179 8 9 39 28 67 43 29 15
61 40 72 55 14 19 39 34 78 46 36 11 69 30 89 51 17 18 38 33 46 33 7 0 47 29
88 63 41 35 90 75 110 88 20 13 67 49 104 79 93 75 232 177 340 251 50 34 97
68 106 78 10 9 50 41 90 71 39 30 106 82 147 115 115 91 167 131 184 141 18
10 88 68 157 129 82 73 189 154 310 237 18 13 54 41 80 63 47 42 58 50 146
109 28 19 67 50 88 70 22 20 55 49 75 64 21 15 81 61 134 102 54 41 138 104
188 140 49 36 136 100 192 143 57 42 146 108 198 146 52 38 127 94 165 125 39
32 93 73 120 92 265 184 403 275 530 352 234 141 360 234 515 377 36 33 99 89
140 125 62 54 294 271 310 290 3 3 41 36 85 74 44 37 112 96 150 131 39 34
124 108 190 164 114 95 302 257 404 347 25 22 107 92 181 154 74 62 147 125
161 139 57 58 271 228 324 257 17 9 41 27 55 41 37 36 107 90 185 143 39 26
83 60 99 74 15 15 45 38 65 50 20 13 95 67 166 120 189 140 208 154 298 225
44 35 104 79 131 98 63 41 89 61 247 190 70 57 192 151 271 210 182 135 329
254 363 295 28 33 58 56 148 115 41 28 57 44 57 60 0 15 -6 23 -17 23 -40 0
-63 -14 -89 -52 -15 -22 -40 -46 -55 -54 -15 -7 -30 -23 -34 -33 -3 -11 -16
-23 -27 -27 -12 -3 -41 -26 -65 -49 -24 -24 -63 -52 -87 -63 -24 -12 -46 -27
-49 -34 -3 -8 -43 -33 -90 -56 -64 -32 -87 -49 -91 -67 -4 -14 -24 -36 -45
-50 -22 -13 -42 -29 -46 -35 -4 -6 -31 -23 -61 -37 -30 -14 -54 -29 -54 -34 0
-5 -21 -20 -47 -33 -27 -13 -54 -34 -61 -46 -7 -12 -42 -35 -77 -51 -35 -16
-66 -33 -70 -39 -11 -19 -45 -11 -45 10 0 11 4 20 10 20 5 0 32 20 59 44 51
46 198 154 329 243 82 56 205 151 281 219 25 23 56 47 69 53 12 7 55 40 93 74
39 34 84 71 99 82 65 47 238 208 248 231 17 35 4 30 -63 -29z m-1145 -987 c0
-21 -33 -60 -50 -60 -5 0 -25 -15 -43 -32 -19 -18 -57 -46 -85 -63 -29 -16
-54 -37 -57 -46 -3 -8 -29 -25 -58 -37 -30 -13 -71 -40 -93 -61 -22 -21 -53
-41 -69 -45 -37 -9 -65 -34 -65 -57 0 -10 -10 -24 -23 -31 -61 -35 -88 -54
-92 -69 -3 -9 -28 -26 -55 -38 -27 -12 -53 -27 -57 -35 -4 -7 -47 -39 -95 -70
-49 -31 -88 -61 -88 -65 0 -5 -21 -21 -47 -37 -27 -15 -51 -33 -55 -39 -9 -15
-67 -40 -74 -32 -3 3 7 16 22 29 15 13 48 41 73 64 52 47 254 197 321 239 25
16 66 46 91 67 25 21 50 38 56 38 6 0 28 18 49 40 22 22 42 40 46 40 5 0 28
20 53 44 24 24 62 57 84 73 85 61 176 130 220 166 51 41 91 49 91 17z m-1113
-836 c3 -8 -4 -25 -17 -39 -26 -28 -136 -105 -150 -105 -5 0 -38 -27 -72 -60
-35 -33 -82 -70 -106 -82 -23 -13 -45 -31 -48 -40 -3 -10 -10 -18 -15 -18 -13
0 -160 -116 -176 -140 -8 -11 -24 -20 -37 -20 -26 0 -52 -25 -58 -55 -2 -13
-12 -21 -30 -23 -15 -2 -32 -10 -38 -18 -7 -8 -19 -14 -27 -14 -17 0 53 90 71
90 15 1 56 36 56 49 0 6 12 18 28 28 15 9 41 30 57 46 17 16 53 45 82 63 28
18 59 44 70 56 17 22 149 132 184 153 29 18 124 85 163 115 44 34 54 36 63 14z
m-826 -657 c-6 -6 -11 -18 -11 -26 0 -14 -93 -107 -140 -139 -14 -9 -33 -27
-43 -39 -10 -13 -25 -23 -34 -23 -8 0 -29 -16 -46 -36 -49 -56 -127 -86 -127
-50 0 13 70 76 85 76 3 0 46 35 95 78 149 131 225 191 229 180 2 -5 -2 -15 -8
-21z m-531 -475 c0 -13 -13 -23 -40 -32 -34 -11 -40 -17 -40 -41 0 -32 -31
-59 -67 -59 -18 0 -23 -6 -23 -25 0 -20 -5 -25 -25 -25 -14 0 -29 -8 -34 -19
-6 -10 -22 -22 -36 -25 -16 -4 -25 -13 -25 -26 0 -11 -7 -20 -15 -20 -9 0 -19
-10 -24 -22 -13 -33 -60 -58 -88 -47 -13 5 -23 13 -23 18 0 11 3 14 80 73 30
23 61 50 68 60 7 10 18 18 25 18 6 0 20 9 32 21 50 50 121 109 133 109 6 0 12
5 12 10 0 19 40 50 65 50 18 0 25 -5 25 -18z m-439 -352 c28 -15 24 -28 -14
-43 -18 -8 -47 -28 -64 -46 -17 -17 -39 -31 -47 -31 -9 0 -16 -7 -16 -15 0 -8
-12 -21 -27 -29 -33 -17 -83 -63 -83 -75 0 -5 -11 -12 -24 -15 -14 -3 -34 -20
-46 -36 -21 -30 -53 -39 -65 -20 -7 11 119 136 147 145 9 3 23 17 32 30 9 14
22 25 29 25 7 0 28 15 47 32 42 40 101 88 107 88 2 0 13 -5 24 -10z m-536
-423 c-16 -25 -55 -47 -80 -47 -8 0 -15 -4 -15 -9 0 -15 -63 -71 -79 -71 -20
0 -110 -71 -117 -92 -3 -11 -19 -21 -35 -25 -16 -3 -34 -14 -40 -24 -5 -11
-18 -19 -29 -19 -10 0 -32 -16 -47 -35 -15 -19 -36 -35 -46 -35 -11 0 -21 -9
-24 -20 -3 -11 -11 -20 -18 -20 -7 0 -15 -7 -19 -15 -4 -11 -13 -14 -31 -9
-18 4 -27 2 -31 -10 -5 -14 -44 -24 -44 -12 0 13 13 36 21 36 12 0 96 60 139
98 19 18 38 32 43 32 9 0 63 38 89 63 10 9 25 17 33 17 8 0 34 18 56 40 23 22
48 40 56 40 7 0 27 16 44 35 17 19 39 35 49 35 10 0 34 16 53 35 22 22 45 35
61 35 25 0 26 -1 11 -23z m-821 -586 c22 -24 13 -41 -19 -41 -17 0 -25 -6 -27
-22 -2 -15 -11 -24 -24 -26 -12 -2 -30 -12 -40 -23 -9 -10 -23 -19 -31 -19 -7
0 -16 -7 -19 -15 -4 -8 -15 -15 -27 -15 -22 0 -57 -27 -57 -44 0 -6 -24 -21
-53 -32 -34 -14 -57 -30 -65 -48 -7 -14 -24 -29 -38 -32 -13 -3 -31 -15 -38
-26 -14 -20 -57 -47 -108 -68 -16 -7 -28 -16 -28 -21 0 -5 -11 -9 -25 -9 -18
0 -28 -7 -35 -25 -5 -14 -17 -25 -25 -25 -9 0 -18 -7 -21 -15 -4 -9 -26 -27
-50 -41 -24 -14 -44 -30 -44 -35 0 -5 -7 -9 -15 -9 -25 0 -17 29 18 63 42 40
87 79 108 92 9 6 40 29 69 53 28 23 60 42 69 42 10 0 24 11 31 25 7 14 19 25
25 25 7 0 26 14 43 30 18 17 40 30 51 30 10 0 21 6 24 14 8 20 143 126 161
126 8 0 17 8 21 18 3 11 30 31 60 47 31 15 58 32 61 36 9 15 30 10 48 -10z
m-956 -714 c2 -9 -4 -20 -14 -24 -10 -3 -35 -23 -56 -44 -22 -21 -51 -39 -66
-41 -17 -2 -34 -14 -47 -34 -11 -18 -36 -40 -55 -50 -19 -11 -55 -40 -78 -66
-24 -27 -51 -48 -61 -48 -9 0 -45 -27 -79 -60 -35 -33 -67 -60 -73 -60 -5 0
-19 -9 -31 -20 -13 -12 -30 -27 -38 -35 -9 -8 -35 -18 -58 -23 -23 -6 -54 -17
-67 -26 -14 -9 -25 -12 -25 -7 0 14 69 71 86 71 8 0 30 16 50 35 19 19 38 35
42 35 5 0 26 17 48 38 21 21 71 60 109 87 39 26 86 62 105 79 19 18 54 45 78
61 24 16 52 39 62 52 10 13 22 23 27 23 6 0 18 9 28 20 10 11 24 20 31 20 8 0
19 9 26 20 15 25 51 23 56 -3z m-1038 -786 c0 -6 -10 -17 -22 -25 -21 -15 -21
-16 -3 -36 16 -18 17 -23 5 -31 -8 -5 -21 -7 -28 -4 -8 3 -23 -2 -35 -10 -12
-8 -34 -15 -49 -15 -19 0 -28 -5 -28 -15 0 -23 -50 -63 -87 -71 -18 -3 -33
-10 -33 -14 0 -5 -9 -12 -21 -15 -12 -4 -18 -13 -15 -20 6 -18 -13 -33 -52
-41 -18 -4 -32 -13 -32 -20 0 -15 -78 -59 -88 -49 -13 13 25 60 56 70 17 5 32
14 32 20 1 5 24 26 51 45 64 44 96 69 124 98 12 12 28 22 36 22 7 0 25 12 40
26 35 34 120 92 137 93 6 1 12 -3 12 -8z m-858 -692 c-18 -16 -41 -29 -51 -29
-10 0 -21 -6 -24 -14 -3 -8 -36 -29 -74 -47 -37 -18 -89 -50 -116 -72 -26 -22
-50 -37 -53 -34 -4 4 -22 -7 -41 -24 -23 -19 -41 -28 -53 -24 -15 5 -19 0 -22
-27 -2 -25 -8 -34 -25 -36 -12 -2 -27 -10 -33 -18 -7 -8 -25 -14 -41 -14 -22
0 -29 -5 -29 -19 0 -10 -7 -21 -15 -25 -17 -6 -45 2 -45 14 0 11 29 40 40 40
5 0 20 10 34 23 43 39 84 67 98 67 7 0 24 14 38 30 14 17 28 30 32 30 5 0 31
16 58 35 27 19 54 35 60 35 5 0 25 14 43 30 19 17 41 30 50 30 8 0 20 6 27 14
6 8 21 16 33 18 14 2 23 11 25 26 3 18 10 22 37 22 22 0 35 6 39 17 6 15 8 15
24 -1 16 -16 15 -19 -16 -47z m-569 -1841 c8 -18 35 -62 60 -98 98 -139 131
-218 113 -266 -6 -15 -8 -15 -31 0 -21 14 -35 15 -77 7 -28 -5 -55 -16 -60
-24 -9 -17 -32 -13 -59 10 -15 12 -19 12 -30 -5 -8 -10 -26 -22 -41 -26 -33
-8 -36 -22 -8 -31 25 -8 26 -21 1 -34 -14 -8 -25 -6 -45 10 -15 11 -36 19 -48
16 -22 -3 -22 -4 5 -15 31 -13 32 -35 2 -40 -10 -2 -27 1 -39 8 -12 6 -29 10
-37 8 -9 -2 -14 5 -14 19 0 29 -10 37 -32 25 -13 -8 -25 -6 -45 6 -32 19 -37
42 -9 42 11 0 23 5 26 10 9 15 -25 25 -45 13 -17 -11 -67 -6 -75 7 -9 15 8 42
33 51 15 6 22 13 16 19 -11 11 -142 -13 -182 -34 -29 -15 -82 -70 -82 -85 0
-5 22 -42 49 -83 66 -100 121 -201 121 -222 0 -21 -29 -33 -40 -16 -12 20 -75
0 -75 -24 0 -15 -10 -19 -60 -23 -109 -8 -120 -10 -155 -25 -43 -19 -160 -34
-160 -21 0 6 11 15 25 21 28 13 34 42 8 42 -27 0 -103 40 -103 55 0 15 -31 25
-80 25 -40 0 -130 -48 -154 -82 -14 -19 -14 -25 -1 -43 48 -68 137 -220 155
-265 29 -74 20 -90 -28 -51 l-39 30 -93 -10 c-68 -7 -106 -16 -138 -34 -51
-29 -103 -35 -82 -10 7 8 25 15 41 15 29 0 69 30 69 51 0 7 -7 8 -17 4 -27
-10 -136 -35 -153 -34 -10 0 -8 5 8 16 35 25 27 35 -24 27 -37 -5 -46 -4 -42
7 5 17 76 57 102 58 10 1 32 16 50 35 17 18 41 37 54 40 12 4 22 12 22 17 0
14 -26 11 -40 -6 -6 -8 -22 -17 -33 -21 -12 -3 -36 -17 -54 -30 -17 -13 -38
-24 -47 -24 -8 0 -27 -10 -43 -23 -33 -28 -51 -35 -118 -48 -57 -11 -125 -52
-125 -75 0 -9 15 -39 34 -67 18 -29 56 -92 85 -140 43 -74 51 -96 51 -137 0
-51 -13 -67 -25 -30 -9 27 -73 27 -106 1 -24 -19 -94 -51 -110 -51 -18 0 -8
21 14 30 12 6 36 19 52 30 17 11 39 24 50 29 11 6 31 20 45 31 l25 21 -37 -6
c-36 -5 -85 -24 -118 -44 -8 -5 -36 -19 -62 -31 -25 -11 -52 -28 -58 -36 -15
-16 -42 -18 -56 -4 -8 8 -19 7 -38 -1 -14 -7 -29 -9 -32 -6 -12 12 5 37 25 37
11 0 25 8 31 18 10 16 10 16 20 0 16 -26 49 -22 72 7 11 14 25 25 33 25 7 0
18 7 25 15 7 8 19 15 26 15 17 0 113 62 113 73 2 15 -43 6 -63 -12 -35 -33
-182 -102 -201 -94 -15 5 -13 9 12 22 41 22 95 48 113 55 22 8 54 29 62 41 13
19 -4 26 -28 11 -13 -9 -28 -16 -34 -16 -7 0 -42 -13 -80 -30 -38 -16 -83 -30
-100 -30 -22 0 -41 -9 -62 -30 l-30 -30 31 2 c16 2 31 -1 33 -7 4 -14 -81 -55
-114 -55 -17 0 -31 -7 -38 -20 -12 -23 -50 -27 -50 -6 0 8 13 17 29 21 16 3
32 13 35 21 3 8 14 14 24 14 18 0 42 18 42 32 0 4 -9 8 -20 8 -11 0 -20 4 -20
10 0 12 53 40 75 40 9 0 18 7 21 15 4 8 27 21 53 29 25 7 69 23 96 36 28 12
65 28 83 36 19 8 32 19 30 25 -6 19 -110 19 -143 0 -17 -10 -42 -21 -55 -24
-14 -4 -37 -18 -52 -32 -15 -14 -35 -25 -45 -25 -10 -1 -34 -14 -53 -30 -19
-17 -40 -30 -46 -30 -6 0 -34 -15 -61 -34 -28 -19 -74 -47 -104 -62 -30 -15
-63 -35 -74 -45 -21 -19 -96 -49 -121 -49 -30 0 -11 18 59 57 39 22 119 71
176 109 209 139 327 212 361 224 19 7 49 25 65 40 17 15 49 37 72 49 23 11 44
25 47 30 4 5 58 40 122 77 64 37 121 75 127 84 7 9 24 23 39 31 15 8 76 46
137 84 61 39 158 97 216 130 58 33 132 76 163 96 127 79 220 133 266 156 27
13 60 32 75 42 103 70 210 135 296 181 55 29 138 74 185 100 147 83 255 140
267 140 7 0 19 -15 26 -32z m-1558 -568 c0 -10 -10 -15 -30 -16 -16 0 -37 -3
-45 -6 -8 -3 -31 -11 -50 -17 -19 -7 -51 -17 -70 -23 -150 -43 -140 -41 -159
-24 -13 12 -24 14 -47 6 -16 -5 -41 -12 -56 -15 -19 -4 -28 -12 -28 -25 0 -23
2 -23 54 -9 25 7 42 7 48 1 19 -19 -30 -34 -84 -27 -43 6 -57 3 -104 -21 -40
-21 -57 -25 -65 -17 -16 16 -2 33 26 33 15 0 26 7 30 20 3 11 11 20 16 20 6 0
26 12 45 27 30 22 121 62 147 63 4 0 7 -7 7 -15 0 -25 66 -20 84 6 10 15 22
20 38 16 13 -3 50 6 83 18 70 27 160 30 160 5z m155 -2 c-1 -28 -27 -45 -77
-51 -29 -3 -65 -13 -82 -21 -16 -9 -41 -16 -55 -16 -14 0 -28 -4 -31 -10 -9
-14 -66 -39 -100 -42 -27 -3 -30 -6 -27 -32 4 -34 -10 -46 -56 -46 -18 0 -44
-7 -58 -16 -18 -13 -28 -14 -36 -6 -8 8 -6 13 8 18 102 35 161 91 68 65 -21
-6 -44 -7 -52 -2 -24 13 63 55 98 47 17 -3 42 2 66 14 21 11 41 20 45 20 4 0
20 5 36 12 15 6 46 17 68 24 22 6 65 21 95 32 64 25 90 27 90 10z m-816 -114
c9 -3 16 -15 16 -26 0 -17 -6 -19 -50 -17 -29 2 -55 -2 -62 -9 -7 -7 -20 -12
-29 -12 -9 0 -22 -7 -29 -15 -7 -8 -20 -15 -29 -15 -26 0 -172 -48 -212 -70
-36 -19 -129 -28 -129 -12 0 11 51 32 77 32 13 0 33 10 45 22 13 13 31 21 41
20 10 -2 26 3 36 12 9 8 41 20 71 25 134 24 165 33 178 52 13 19 46 25 76 13z
m-612 -987 c-12 -13 -22 -26 -22 -30 0 -4 15 -28 34 -54 37 -54 146 -256 146
-273 0 -6 -12 -10 -27 -8 -22 2 -29 9 -31 31 -3 25 -15 32 -49 28 -21 -3 -25
20 -7 40 23 26 12 34 -27 20 -72 -25 -95 1 -34 39 19 12 35 28 35 36 0 25 -53
15 -113 -21 -32 -19 -60 -35 -63 -35 -3 0 17 22 45 49 57 56 63 76 26 93 -14
6 -24 15 -23 20 2 5 26 27 53 48 56 44 92 55 57 17z"/>
<path d="M17859 15983 c-20 -21 -47 -52 -60 -69 -68 -87 -229 -286 -271 -334
-26 -30 -83 -101 -125 -157 -43 -56 -139 -178 -214 -270 -74 -92 -206 -256
-292 -363 -324 -401 -517 -613 -697 -762 -52 -44 -126 -106 -165 -138 -82 -69
-103 -85 -250 -183 -207 -139 -299 -187 -459 -238 -137 -44 -237 -60 -411 -66
-135 -4 -175 -2 -255 15 -135 28 -292 90 -408 161 -275 169 -498 518 -557 871
-31 189 -29 463 4 630 29 145 23 141 -23 -15 -44 -148 -58 -240 -63 -436 -4
-146 -2 -208 11 -290 41 -255 154 -529 285 -690 174 -215 458 -378 741 -424
119 -19 316 -19 440 -1 219 34 463 149 730 344 328 241 750 680 1130 1174 39
51 92 118 118 149 344 413 456 555 639 809 54 74 124 170 155 213 32 43 58 85
58 93 0 25 -25 15 -61 -23z"/>
<path d="M12780 15830 c-38 -9 -62 -35 -99 -104 -25 -47 -23 -72 6 -83 11 -4
25 4 46 28 47 55 117 150 117 160 0 11 -22 10 -70 -1z"/>
<path d="M14125 15770 c-3 -6 7 -22 23 -38 31 -28 130 -154 194 -244 63 -89
143 -170 163 -167 26 6 30 28 6 37 -11 4 -37 34 -59 67 -21 33 -56 78 -77 100
-21 22 -64 81 -96 131 -43 66 -68 95 -94 107 -41 20 -51 21 -60 7z"/>
<path d="M12536 15509 c-14 -11 -26 -25 -26 -31 0 -5 -9 -21 -20 -35 -25 -32
-25 -44 0 -73 l21 -24 -33 -32 c-18 -18 -41 -53 -52 -79 -18 -46 -18 -46 3
-69 31 -33 27 -54 -11 -58 -31 -3 -34 -7 -55 -70 -24 -72 -23 -93 8 -101 27
-7 24 -32 -6 -51 -14 -9 -25 -26 -25 -39 0 -12 -9 -49 -20 -81 -25 -74 -25
-92 0 -113 25 -22 25 -31 1 -57 -17 -18 -61 -126 -61 -148 0 -4 12 -18 27 -32
l26 -25 -30 -28 c-19 -18 -36 -49 -47 -85 -21 -73 -20 -95 4 -108 29 -15 25
-38 -10 -58 -30 -18 -64 -68 -91 -138 -16 -40 -15 -43 4 -74 l21 -33 -93 -86
-92 -87 7 -52 c6 -51 6 -52 -27 -69 -19 -10 -60 -44 -92 -76 -53 -53 -57 -61
-51 -92 5 -30 2 -36 -29 -57 -18 -13 -57 -39 -86 -58 l-52 -35 7 -47 c5 -45 4
-48 -16 -48 -39 0 -89 -31 -156 -97 -44 -44 -64 -70 -60 -80 9 -23 -23 -53
-56 -53 -15 0 -28 -5 -28 -10 0 -17 -91 -100 -124 -114 -28 -11 -31 -17 -31
-57 0 -42 -2 -44 -31 -47 -38 -4 -114 -71 -114 -101 0 -39 39 -24 103 41 34
34 89 83 122 109 34 26 102 89 151 141 50 51 119 119 153 151 34 32 71 73 82
92 11 19 29 37 38 40 10 3 47 42 82 87 35 45 85 104 110 132 112 124 379 564
379 624 0 8 13 58 29 111 25 85 39 144 55 246 3 17 12 62 20 100 13 61 36 190
51 280 2 17 10 66 16 110 24 181 82 412 128 515 44 96 50 134 25 144 -21 8
-18 9 -48 -15z"/>
<path d="M14540 15280 c-24 -15 0 -63 38 -76 18 -5 51 -29 75 -52 23 -22 68
-53 99 -67 65 -30 128 -43 128 -27 0 17 -39 43 -152 102 -69 35 -111 64 -121
81 -19 34 -48 51 -67 39z"/>
<path d="M12342 13783 c-230 -345 -405 -549 -870 -1009 -332 -330 -352 -355
-291 -362 50 -6 396 288 639 543 218 227 341 390 464 613 80 145 144 302 122
302 -3 0 -32 -39 -64 -87z"/>
<path d="M8860 12543 c-33 -43 -73 -93 -91 -111 -33 -35 -216 -328 -270 -434
-42 -81 -89 -229 -89 -277 0 -40 6 -54 35 -87 34 -38 34 -39 35 -13 0 15 -9
38 -21 53 -26 33 -16 48 41 65 22 6 47 23 56 36 12 19 22 23 43 19 29 -6 29
-6 136 141 46 62 66 73 97 51 12 -9 30 -16 39 -16 8 0 30 -22 48 -50 34 -52
46 -57 127 -51 23 2 59 -33 49 -48 -3 -6 -17 -11 -29 -11 -27 0 -41 -14 -49
-50 -3 -14 -29 -51 -57 -82 -28 -32 -49 -62 -45 -68 7 -11 54 -13 80 -4 9 4
25 25 35 48 16 38 23 44 84 65 58 20 72 22 111 12 114 -29 225 -7 401 78 191
92 224 127 224 238 0 78 -24 136 -53 127 -15 -5 -30 5 -61 38 -42 45 -116 104
-116 92 0 -3 14 -22 30 -41 17 -19 28 -38 25 -44 -12 -18 -51 -9 -85 19 -42
35 -80 56 -87 48 -12 -12 9 -38 57 -67 27 -17 50 -35 50 -41 0 -27 -151 35
-178 73 -20 28 -116 89 -141 89 -27 0 -18 -21 17 -42 34 -21 72 -56 72 -68 0
-4 -13 -11 -30 -15 -16 -4 -30 -10 -30 -14 0 -11 35 -41 47 -41 6 0 16 -6 22
-14 9 -11 6 -15 -14 -18 -33 -7 -75 25 -75 56 0 12 -13 35 -30 51 -24 23 -32
26 -44 16 -13 -11 -25 -8 -68 13 -34 17 -55 23 -62 16 -15 -15 39 -67 76 -74
39 -8 58 -23 58 -47 0 -24 -12 -24 -35 1 -9 10 -40 27 -67 36 -32 10 -52 24
-57 38 -8 20 -52 62 -175 169 -39 34 -56 56 -56 73 0 40 33 28 75 -28 23 -30
56 -59 80 -70 22 -10 51 -28 65 -39 16 -12 33 -17 43 -13 26 10 17 23 -33 51
-53 28 -123 101 -151 155 -11 21 -23 38 -28 38 -5 0 -19 -12 -31 -27z"/>
<path d="M10690 11898 c-14 -5 -39 -7 -56 -3 -44 8 -60 -1 -94 -51 -35 -50
-37 -64 -11 -64 20 0 46 -20 53 -41 7 -20 51 16 102 81 59 74 61 99 6 78z"/>
<path d="M10527 11689 c-10 -6 -30 -8 -45 -4 -21 4 -33 0 -46 -14 -11 -12 -34
-23 -53 -27 -36 -7 -53 -28 -53 -68 0 -20 5 -26 22 -26 12 0 32 -10 44 -21 23
-21 24 -21 51 -4 42 27 63 54 89 113 31 69 30 74 -9 51z"/>
<path d="M8323 11663 c-4 -9 -1 -19 5 -21 13 -4 17 -32 5 -33 -36 -3 -53 -13
-86 -51 -22 -24 -45 -58 -53 -75 -8 -18 -21 -33 -28 -33 -19 0 -56 -47 -56
-71 0 -10 -9 -23 -20 -29 -11 -6 -29 -28 -40 -50 -11 -21 -48 -67 -82 -100
l-62 -62 -43 13 c-37 10 -46 9 -65 -5 -13 -9 -57 -37 -98 -63 -78 -50 -164
-132 -240 -228 -25 -31 -82 -94 -128 -138 -107 -106 -144 -161 -185 -277 -19
-53 -39 -105 -45 -115 -39 -73 -82 -216 -82 -273 0 -54 12 -83 53 -129 30 -33
36 -48 46 -122 6 -46 11 -103 11 -126 0 -23 7 -50 15 -61 8 -10 15 -22 15 -26
0 -7 -50 -67 -126 -151 -34 -38 -37 -57 -7 -57 10 0 13 6 9 16 -7 19 69 94 95
94 18 0 49 31 49 48 0 7 16 12 39 12 22 0 43 5 46 10 4 6 11 8 16 4 16 -10 59
-12 53 -3 -3 5 11 9 30 9 30 0 36 4 36 22 0 20 1 20 19 4 12 -11 32 -16 55
-14 22 1 41 -3 45 -11 6 -8 49 -14 142 -17 74 -3 140 -7 147 -10 8 -2 163 -7
345 -10 183 -3 376 -9 430 -15 55 -5 123 -6 153 -3 30 4 111 1 181 -6 384 -37
597 -159 674 -389 23 -66 33 -70 43 -17 17 91 -64 278 -162 374 -128 125 -490
233 -735 218 -113 -6 -122 3 -42 43 43 22 65 25 190 29 90 3 161 0 196 -8 30
-6 83 -18 119 -26 36 -7 118 -30 184 -50 l119 -37 18 24 c10 13 19 30 19 37 0
18 104 16 171 -4 94 -28 147 -63 205 -137 30 -38 54 -78 54 -90 0 -28 49 -109
63 -104 27 8 19 55 -16 94 -26 28 -32 43 -27 58 9 26 4 42 -31 87 -16 20 -29
40 -29 43 0 4 26 4 58 0 31 -3 80 -8 107 -11 61 -6 350 -78 585 -146 362 -104
1096 -359 1234 -429 74 -38 101 -34 182 22 61 43 76 58 68 70 -2 4 -34 19 -71
35 -38 15 -120 50 -183 77 -63 27 -153 61 -200 77 -47 15 -150 53 -230 85
-379 149 -640 237 -850 286 -108 25 -277 67 -670 166 -482 122 -505 126 -645
108 l-54 -6 -8 32 -9 33 -47 -47 c-25 -26 -49 -47 -52 -47 -2 0 -14 18 -25 40
-26 52 -44 58 -82 30 -16 -12 -30 -20 -32 -18 -1 1 -8 16 -16 32 -14 27 -13
30 4 40 11 6 34 25 52 42 18 18 38 34 46 37 20 8 -10 27 -43 27 -39 0 -65 -28
-84 -93 -14 -45 -25 -61 -47 -73 -39 -20 -53 -13 -68 30 -6 20 -16 36 -21 36
-5 0 -20 -18 -34 -40 -28 -45 -57 -64 -85 -55 -10 3 -137 7 -282 9 -241 2
-274 5 -393 30 -160 33 -316 80 -372 113 -51 29 -123 106 -123 130 1 27 35 96
58 117 32 28 48 14 62 -54 l13 -62 66 -29 c36 -16 80 -36 96 -45 27 -15 113
-35 216 -51 50 -7 61 13 23 44 -16 13 -38 32 -49 43 -18 18 -74 27 -173 30 -8
0 -10 8 -6 24 3 13 1 27 -5 30 -23 14 -10 26 28 26 30 0 41 -5 46 -19 4 -14
22 -22 73 -30 37 -7 99 -19 138 -27 76 -17 82 -16 254 26 47 11 118 23 158 27
73 6 86 14 55 32 -17 9 -17 13 5 50 13 25 22 57 22 84 0 25 7 64 15 87 8 23
15 51 15 61 0 26 -34 43 -58 28 -24 -15 -92 19 -122 61 -12 16 -28 30 -36 30
-25 0 -15 -38 16 -60 17 -12 30 -28 30 -36 0 -25 -36 -15 -96 25 -49 33 -60
37 -63 23 -2 -9 10 -27 25 -40 83 -70 99 -87 83 -90 -8 -1 -41 10 -71 27 -45
23 -67 28 -108 26 -61 -3 -69 -9 -47 -33 42 -46 6 -65 -39 -21 -31 30 -37 32
-62 23 -23 -9 -33 -8 -51 7 -19 15 -20 21 -11 40 10 18 8 25 -22 50 -42 36
-48 36 -48 0 0 -18 8 -34 23 -44 18 -12 20 -18 9 -28 -15 -16 -39 -4 -56 26
-6 11 -26 41 -44 68 -18 27 -31 55 -28 62 8 22 -22 41 -44 27 -14 -9 -21 -7
-35 8 -10 11 -15 26 -12 35 8 19 23 19 31 0 8 -22 44 -18 51 5 10 30 -3 41
-39 35 -24 -5 -36 -2 -49 13 -17 18 -17 21 0 51 23 39 41 39 54 1 13 -36 32
-39 47 -6 16 36 -19 80 -59 74 -16 -3 -29 -1 -29 4 0 4 4 8 9 8 5 0 14 14 21
30 16 39 53 41 72 3 7 -14 22 -31 33 -37 11 -6 22 -12 24 -13 2 -2 7 -19 10
-39 6 -36 33 -65 47 -51 10 10 -17 88 -33 94 -17 7 -47 69 -38 82 11 19 52 12
68 -11 18 -28 36 -15 19 13 -9 14 -8 70 2 69 0 0 19 -7 41 -15 22 -8 53 -14
68 -15 20 0 47 -16 89 -55 39 -35 79 -60 112 -71 71 -24 145 -67 186 -109 19
-19 42 -35 52 -35 10 0 30 -13 44 -29 15 -17 39 -33 53 -36 57 -12 282 79 289
118 3 15 -2 17 -51 11 -53 -6 -115 1 -104 12 3 3 19 7 35 9 17 2 48 12 69 23
28 14 53 18 98 15 51 -3 67 0 110 24 68 39 95 81 95 152 0 56 -37 157 -63 173
-6 4 -33 -5 -59 -19 l-47 -26 -31 27 c-17 14 -36 26 -41 26 -5 0 -22 8 -36 18
-48 31 -124 49 -165 39 -63 -16 -50 -28 45 -41 21 -3 52 -12 69 -20 17 -9 36
-16 42 -16 14 -1 49 -48 44 -60 -2 -5 -23 0 -48 11 -46 21 -215 50 -305 53
-33 1 -63 9 -88 25 -30 18 -45 22 -74 16 -29 -5 -40 -2 -59 16 -21 20 -33 59
-18 59 3 0 27 -9 53 -21 55 -23 116 -23 116 1 0 9 -18 20 -45 29 -25 7 -60 20
-77 27 -18 7 -39 11 -48 8 -42 -17 -102 39 -71 65 10 8 23 4 51 -19 30 -24 41
-28 57 -19 14 7 29 7 50 0 38 -13 78 -14 78 -2 0 10 -57 61 -68 61 -4 0 -13
-9 -20 -21 -17 -27 -31 -15 -73 57 -32 57 -45 65 -56 37z m154 -327 c21 -8 74
-19 118 -25 44 -5 96 -16 114 -24 25 -11 41 -12 57 -5 18 9 37 3 98 -28 78
-38 80 -41 70 -68 -8 -22 -16 -21 -106 15 -43 18 -81 29 -84 26 -3 -3 -1 -14
5 -26 6 -11 8 -22 4 -24 -15 -8 -44 9 -56 33 -18 36 -113 81 -158 74 -56 -8
-131 28 -114 56 8 13 7 13 52 -4z"/>
<path d="M11760 11440 c-29 -19 5 -44 101 -77 98 -33 144 -40 154 -23 23 37
-102 110 -187 110 -29 0 -60 -5 -68 -10z"/>
<path d="M10057 11274 c-26 -20 -47 -41 -47 -46 0 -6 14 -24 32 -40 l32 -30
34 18 c38 20 92 78 92 98 0 14 -49 36 -80 36 -9 0 -38 -16 -63 -36z"/>
<path d="M9975 11121 c-11 -5 -25 -6 -31 -4 -13 5 -100 -52 -107 -70 -6 -15
22 -65 41 -72 7 -3 22 -1 32 5 27 14 121 123 117 135 -5 13 -27 16 -52 6z"/>
<path d="M13110 10842 c0 -22 129 -100 245 -148 39 -16 105 -52 147 -81 95
-65 170 -103 200 -103 l23 0 -25 24 c-27 27 -195 125 -277 161 -28 13 -79 42
-113 65 -94 64 -200 107 -200 82z"/>
<path d="M9218 10354 c-35 -25 -39 -26 -70 -12 -23 11 -48 14 -83 9 -45 -5
-50 -8 -50 -31 0 -27 -3 -27 150 -17 58 4 149 22 167 33 15 9 -29 44 -54 44
-13 0 -40 -12 -60 -26z"/>
<path d="M9268 10190 c-12 -8 -16 -23 -15 -64 1 -56 11 -63 27 -21 10 27 60
38 150 33 46 -2 57 -7 65 -25 12 -27 22 -29 46 -7 16 14 29 14 156 -6 76 -13
147 -26 158 -31 26 -12 145 -36 220 -44 33 -4 76 -14 95 -22 19 -8 89 -25 155
-39 66 -13 138 -33 160 -43 51 -24 161 -37 181 -20 21 18 17 46 -8 53 -36 9
-48 7 -48 -9 0 -18 -11 -19 -45 -3 -14 6 -24 17 -21 24 3 7 -1 18 -9 24 -18
15 -51 8 -47 -10 7 -31 -49 -33 -93 -4 -11 8 -27 14 -36 14 -25 0 -41 24 -27
38 17 17 4 25 -55 30 -38 3 -63 -1 -86 -12 -28 -15 -35 -15 -59 -2 -15 8 -61
22 -102 31 -41 10 -87 23 -101 31 -21 11 -33 11 -58 1 -29 -11 -34 -10 -49 10
-14 17 -35 24 -110 33 -51 7 -99 9 -108 6 -8 -3 -27 -1 -42 5 -15 6 -72 15
-127 19 -55 5 -112 11 -125 14 -14 3 -33 1 -42 -4z"/>
<path d="M11350 9891 c0 -5 6 -13 13 -19 20 -17 138 -53 200 -62 38 -6 67 -17
88 -34 32 -27 103 -51 188 -65 51 -8 77 0 43 14 -42 18 -192 67 -237 79 -27 7
-63 20 -80 28 -34 18 -183 68 -202 68 -7 0 -13 -4 -13 -9z"/>
<path d="M11000 9836 c0 -8 -7 -16 -15 -20 -42 -16 -15 -30 187 -97 148 -50
205 -60 194 -36 -3 6 -9 19 -12 28 -4 12 -25 18 -82 23 -52 4 -82 12 -96 24
-37 33 -75 52 -101 52 -14 0 -34 9 -45 20 -24 24 -30 25 -30 6z"/>
<path d="M11950 9682 c0 -30 129 -85 230 -99 32 -4 57 -17 86 -42 68 -59 144
-99 202 -107 28 -4 52 -3 52 2 0 14 -145 94 -215 119 -36 12 -70 27 -77 33 -7
5 -31 17 -53 25 -221 84 -225 85 -225 69z"/>
<path d="M9582 9648 c-19 -19 -15 -32 24 -69 45 -43 136 -164 163 -218 22 -43
41 -54 41 -23 0 21 -54 102 -104 156 -40 44 -44 60 -20 74 26 14 12 45 -31 69
-46 26 -56 28 -73 11z"/>
<path d="M12017 9450 l-28 -18 28 -20 c16 -11 76 -39 134 -61 57 -22 122 -49
144 -60 46 -25 93 -27 121 -6 16 13 17 16 4 25 -22 15 -110 40 -140 40 -15 0
-38 8 -51 18 -13 10 -37 24 -54 32 -16 8 -43 24 -60 36 -44 31 -67 35 -98 14z"/>
<path d="M7214 9117 c-64 -44 -92 -82 -77 -105 17 -27 58 -17 118 30 42 33 55
49 55 69 0 24 -15 39 -40 39 -4 0 -29 -15 -56 -33z"/>
<path d="M8038 9130 c-68 -20 -148 -98 -148 -144 0 -21 39 -46 71 -46 56 0
169 101 169 151 0 23 -27 49 -48 48 -9 0 -29 -4 -44 -9z"/>
<path d="M7535 9101 c-27 -16 -58 -38 -68 -49 -22 -24 -19 -70 4 -85 40 -25
179 66 179 116 0 54 -42 60 -115 18z"/>
<path d="M9637 8870 c-53 -34 -59 -55 -27 -107 26 -43 50 -42 89 2 34 39 40
69 16 79 -8 3 -15 17 -15 31 0 32 -6 31 -63 -5z"/>
<path d="M9805 8744 l-75 -65 15 -30 c9 -16 22 -29 29 -29 14 0 105 93 133
137 17 26 11 53 -11 53 -9 0 -49 -30 -91 -66z"/>
<path d="M9405 8728 c-52 -27 -144 -45 -308 -57 -559 -44 -537 -41 -602 -74
-22 -12 -41 -13 -75 -7 -40 7 -79 6 -137 -6 -15 -3 -20 -9 -16 -24 7 -27 -23
-37 -47 -15 -17 15 -27 16 -92 5 -115 -18 -138 -28 -138 -56 0 -27 -3 -29 -29
-12 -16 9 -39 6 -128 -21 -59 -18 -116 -39 -127 -46 -17 -13 -17 -15 9 -49 18
-23 36 -36 51 -36 25 0 166 71 198 98 13 12 32 16 65 14 25 -2 82 6 125 18 44
11 109 20 145 20 36 0 96 9 132 19 53 15 77 17 117 10 33 -6 70 -6 109 2 32 6
105 12 163 13 64 1 127 9 161 19 41 13 63 15 82 8 28 -11 178 7 230 28 16 6
54 11 85 11 54 0 61 3 127 56 100 79 99 104 -5 103 -36 0 -69 -7 -95 -21z"/>
<path d="M6660 8720 c-8 -5 -39 -17 -69 -26 -59 -17 -114 -64 -109 -91 2 -14
18 -20 66 -26 54 -8 66 -6 96 13 45 27 96 86 96 109 0 29 -48 41 -80 21z"/>
<path d="M6931 8703 c-54 -27 -103 -78 -99 -105 7 -54 138 -6 174 64 15 30 15
32 -2 45 -23 17 -32 16 -73 -4z"/>
<path d="M9523 8576 c-52 -44 -48 -117 8 -146 25 -14 54 3 110 64 60 64 53 76
-29 50 -22 -6 -23 -4 -20 22 4 39 -29 44 -69 10z"/>
<path d="M9267 8473 c-29 -12 -36 -19 -31 -32 4 -9 8 -34 8 -55 1 -34 5 -41
28 -48 35 -12 115 13 153 48 36 33 23 48 -37 41 -54 -7 -72 9 -49 44 10 17 8
19 -11 18 -13 0 -40 -7 -61 -16z"/>
<path d="M8977 8443 c-4 -3 -7 -21 -7 -39 0 -18 -4 -36 -10 -39 -36 -22 36
-60 99 -52 57 7 143 45 138 60 -2 7 -29 13 -62 15 -65 3 -89 16 -82 44 4 15
-1 18 -32 18 -21 0 -41 -3 -44 -7z"/>
<path d="M8755 8420 c-24 -10 -46 -28 -53 -44 -10 -23 -17 -26 -59 -26 -88 0
-147 29 -127 61 7 12 -33 11 -57 -1 -10 -6 -19 -21 -19 -34 0 -13 -7 -29 -16
-37 -16 -13 -96 -14 -123 0 -9 5 -33 11 -54 14 -35 5 -42 2 -68 -26 -36 -39
-37 -62 -4 -83 35 -23 106 -12 165 26 57 36 70 37 98 5 12 -14 32 -25 44 -25
13 0 65 18 116 41 l93 42 31 -23 c29 -21 36 -22 83 -13 64 14 125 39 125 52 0
5 -27 12 -60 16 -65 7 -90 25 -71 49 19 22 0 25 -44 6z"/>
<path d="M7595 8355 c-36 -11 -142 -61 -154 -71 -2 -2 -5 -14 -6 -26 -1 -18
-8 -22 -36 -24 -41 -1 -194 -76 -203 -99 -3 -9 -6 -27 -6 -39 0 -17 -10 -25
-47 -38 -27 -9 -60 -16 -75 -16 -29 1 -102 -38 -131 -70 -17 -19 -17 -21 -1
-55 10 -20 23 -38 31 -41 14 -6 185 132 206 165 8 14 24 19 53 19 29 0 51 8
77 28 19 15 59 46 89 68 39 31 66 44 103 49 28 4 59 12 70 17 33 17 125 90
125 99 0 10 -41 49 -49 48 -3 -1 -24 -7 -46 -14z"/>
<path d="M6270 8330 c-14 -12 -42 -30 -62 -41 -31 -16 -38 -25 -38 -49 0 -65
85 -58 164 15 29 26 37 40 34 62 -3 24 -8 28 -38 31 -23 1 -43 -5 -60 -18z"/>
<path d="M13057 8290 c-14 -11 -32 -20 -40 -20 -9 0 -18 -4 -21 -9 -4 -5 -25
-12 -48 -16 -23 -4 -55 -16 -72 -26 -48 -29 -78 -41 -121 -47 -22 -3 -51 -12
-65 -20 -85 -53 -66 -72 31 -31 37 16 81 29 97 29 20 0 42 12 68 35 21 19 45
35 54 35 8 0 25 6 36 14 11 8 38 18 60 21 51 10 74 22 74 40 0 21 -23 19 -53
-5z"/>
<path d="M7877 8252 c-33 -34 -34 -57 -4 -77 17 -10 31 -12 53 -6 49 14 121
51 139 71 22 24 17 26 -85 34 -74 6 -77 6 -103 -22z"/>
<path d="M7658 8193 c-69 -3 -79 -7 -98 -30 -15 -19 -19 -35 -15 -57 6 -27 3
-31 -17 -33 -13 -1 -56 -4 -96 -7 -40 -3 -86 -13 -101 -21 -52 -26 -79 -65
-46 -65 8 0 19 -10 26 -21 17 -33 75 -20 152 35 36 25 70 52 76 60 8 10 24 12
52 9 33 -5 48 0 97 32 103 67 132 107 75 103 -16 -1 -63 -4 -105 -5z"/>
<path d="M13030 8140 c-19 -5 -55 -14 -80 -20 -25 -6 -58 -13 -75 -15 -16 -2
-70 -15 -120 -29 -49 -14 -103 -29 -120 -32 -16 -4 -39 -14 -50 -23 -11 -10
-33 -23 -49 -30 -21 -9 -26 -15 -18 -23 8 -8 19 -7 42 2 25 11 33 10 48 -2 18
-15 52 -13 52 3 0 5 -11 9 -25 9 -14 0 -25 4 -25 10 0 14 75 50 105 50 14 0
44 9 68 19 23 11 53 20 67 21 14 0 47 0 74 1 37 0 57 6 79 25 16 13 41 24 58
24 16 0 29 5 29 10 0 11 -10 11 -60 0z"/>
<path d="M6105 8069 c-45 -22 -112 -84 -121 -111 -9 -31 13 -58 49 -58 50 0
159 79 178 129 24 60 -27 80 -106 40z"/>
<path d="M13375 8060 c-27 -11 -60 -19 -71 -20 -12 0 -27 -7 -34 -15 -6 -8
-22 -17 -33 -21 -12 -3 -45 -18 -73 -32 -30 -14 -59 -22 -69 -19 -26 10 -12
31 24 37 17 3 30 10 29 15 -4 13 -45 8 -82 -11 -16 -8 -37 -14 -47 -14 -10 0
-20 -4 -23 -9 -8 -13 41 -31 103 -37 60 -7 79 1 198 75 35 22 64 33 89 33 46
0 85 22 59 32 -9 3 -17 6 -18 5 -1 0 -24 -9 -52 -19z"/>
<path d="M5553 7911 c-21 -15 -56 -48 -77 -72 -34 -40 -35 -45 -20 -56 31 -23
76 -15 126 22 56 41 68 73 41 109 -10 14 -21 26 -24 26 -3 0 -24 -13 -46 -29z"/>
<path d="M7246 7929 c-10 -6 -47 -15 -83 -19 -89 -11 -143 -47 -143 -95 0 -34
1 -35 41 -35 32 0 56 9 103 41 74 50 116 88 116 106 0 16 -9 16 -34 2z"/>
<path d="M6794 7861 c-78 -40 -122 -79 -126 -109 -3 -25 -7 -27 -58 -32 -57
-5 -135 -45 -176 -91 -17 -19 -17 -22 -2 -47 28 -46 58 -40 137 28 39 34 79
72 87 86 13 19 25 24 55 24 35 0 47 8 111 68 51 49 70 73 65 85 -9 23 -32 20
-93 -12z"/>
<path d="M6910 7749 c-107 -28 -167 -87 -135 -135 24 -36 56 -30 132 27 71 53
99 82 107 112 5 22 -8 21 -104 -4z"/>
<path d="M5831 7693 c-72 -36 -141 -100 -141 -128 0 -8 9 -24 21 -36 28 -28
56 -20 149 45 85 59 123 113 101 140 -20 24 -52 19 -130 -21z"/>
<path d="M6665 7580 c-33 -10 -72 -21 -86 -24 -15 -3 -37 -14 -49 -24 -22 -18
-23 -20 -7 -43 10 -13 17 -34 17 -46 0 -31 26 -30 81 5 62 41 153 128 145 141
-9 14 -29 13 -101 -9z"/>
<path d="M5146 7382 c-82 -49 -125 -132 -76 -147 44 -14 175 92 168 136 -4 31
-51 36 -92 11z"/>
<path d="M4805 6981 c-61 -37 -97 -79 -93 -108 2 -23 8 -29 34 -31 58 -6 173
108 149 147 -10 17 -57 13 -90 -8z"/>
<path d="M4306 6755 c-9 -9 -14 -21 -11 -26 4 -5 -1 -6 -9 -3 -14 5 -118 -77
-130 -104 -7 -16 33 -62 54 -62 29 0 137 78 158 114 20 34 20 35 2 51 -12 10
-28 15 -40 12 -18 -4 -19 -3 -9 9 17 21 5 28 -15 9z"/>
</g>
</svg>
